<svg version="1.2" baseProfile="tiny-ps" xmlns="http://www.w3.org/2000/svg" viewBox="0 0 50 50" width="50" height="50">
	<title>diversion-svg</title>
	<style>
		tspan { white-space:pre }
		.shp0 { fill: #ffffff } 
		.shp1 { fill: none;stroke: #9b51e0;stroke-width: 2 } 
		.shp2 { fill: #9b51e0 } 
	</style>
	<g id="Layer">
		<path id="Layer" class="shp0" d="M25 43C15.05 43 7 34.95 7 25C7 15.05 15.05 7 25 7C34.95 7 43 15.05 43 25C43 34.95 34.95 43 25 43Z" />
		<path id="Layer" class="shp1" d="M25 44C14.49 44 6 35.51 6 25C6 14.49 14.49 6 25 6C35.51 6 44 14.49 44 25C44 35.51 35.51 44 25 44Z" />
	</g>
	<path id="Layer" fill-rule="evenodd" class="shp2" d="M26.3 17.91C26.52 18.39 26.51 18.88 26.25 19.36L26.03 19.77L26.3 19.61C26.67 19.4 27.12 18.86 27.41 18.29C27.7 17.73 27.85 17.58 28.11 17.62C28.28 17.64 28.32 17.71 28.34 17.98C28.37 18.42 28.03 19.15 27.31 20.14C26.63 21.07 26.38 21.54 26.31 22.02L26.24 22.38L25.08 22.41L23.91 22.43L23.86 22.07C23.8 21.61 23.53 21.11 22.81 20.1C22.14 19.16 21.94 18.79 21.83 18.32C21.72 17.85 21.84 17.59 22.14 17.62C22.32 17.64 22.44 17.76 22.72 18.27C23.1 18.94 23.47 19.37 23.89 19.62L24.17 19.78L23.96 19.51C23.67 19.11 23.62 18.28 23.87 17.8C24.04 17.48 24.35 17.19 24.66 17.07C25.26 16.84 25.98 17.21 26.3 17.91ZM25.15 17.29C24.03 17.18 23.49 18.69 24.35 19.56C24.59 19.79 24.71 19.84 25.01 19.84C25.72 19.84 26.2 19.32 26.2 18.55C26.2 18.15 26.06 17.82 25.75 17.53C25.61 17.41 25.39 17.31 25.15 17.29Z" />
	<path id="Layer" class="shp2" d="M24.57 19.15C24.57 19.19 24.68 19.27 24.83 19.33C25.04 19.41 25.12 19.41 25.31 19.28C25.58 19.1 25.53 19.03 25.22 19.17C25.04 19.25 24.95 19.25 24.82 19.17C24.63 19.05 24.57 19.04 24.57 19.15Z" />
	<path id="Layer" fill-rule="evenodd" class="shp2" d="M20.67 18.63C21.05 18.86 21.36 19.35 22.06 20.81C22.53 21.79 22.75 22.12 23.02 22.36L23.38 22.66L22.85 23.62C22.56 24.14 22.28 24.59 22.24 24.62C22.2 24.64 22.04 24.6 21.89 24.51C21.65 24.39 21.44 24.38 20.7 24.4C18.53 24.49 17.56 24.45 17.32 24.29C17.06 24.13 17.02 23.88 17.21 23.72C17.28 23.65 17.69 23.61 18.22 23.6C18.97 23.59 19.18 23.55 19.58 23.36L20.05 23.15L19.62 23.15C19.17 23.14 18.63 22.91 18.36 22.62C18.14 22.39 17.95 21.87 17.95 21.56C17.95 21 18.46 20.42 19.06 20.32C19.73 20.2 20.57 20.64 20.84 21.26L20.95 21.52L20.96 21.17C20.96 20.7 20.78 20.2 20.35 19.49C19.97 18.86 19.95 18.79 20.15 18.6C20.32 18.43 20.34 18.43 20.67 18.63ZM20.27 18.82C20.27 18.86 20.42 19.16 20.61 19.48C21.09 20.27 21.25 20.85 21.19 21.54C21.11 22.34 20.89 22.77 20.34 23.19C19.67 23.7 19.25 23.83 18.26 23.83C17.67 23.84 17.39 23.88 17.36 23.96C17.29 24.16 17.8 24.26 18.81 24.23C20.47 24.19 21.68 24.19 21.94 24.23C22.2 24.27 22.22 24.25 22.85 23.14L23.05 22.78L22.69 22.37C22.5 22.16 22.24 21.77 22.13 21.53C22.01 21.29 21.74 20.71 21.52 20.26C21.31 19.8 20.98 19.27 20.8 19.07C20.48 18.73 20.27 18.63 20.27 18.82ZM18.44 20.96C18.01 21.47 18.2 22.3 18.82 22.68C19.43 23.05 20.08 22.97 20.49 22.48C20.69 22.25 20.72 22.16 20.68 21.76C20.64 21.25 20.35 20.86 19.86 20.65C19.31 20.41 18.8 20.52 18.44 20.96Z" />
	<path id="Layer" class="shp2" d="M20.06 21.78C20.09 21.85 20.01 22 19.89 22.12C19.77 22.24 19.67 22.36 19.67 22.38C19.67 22.48 19.86 22.41 20.01 22.25C20.18 22.08 20.25 21.65 20.1 21.65C20.05 21.65 20.04 21.71 20.06 21.78Z" />
	<path id="Layer" fill-rule="evenodd" class="shp2" d="M29.86 19.34C29.4 20.15 29.18 20.67 29.15 21.09L29.11 21.52L29.28 21.25C29.6 20.75 30.03 20.5 30.64 20.46C31.32 20.42 31.74 20.64 31.98 21.17C32.17 21.62 32.17 21.87 31.98 22.3C31.7 22.9 31.11 23.28 30.44 23.28L30.12 23.29L30.46 23.47C30.74 23.62 31.01 23.67 31.8 23.71C32.84 23.76 33 23.8 33 24.05C33 24.53 32.08 24.74 30.57 24.59C29.18 24.45 28.72 24.46 28.23 24.63C28.01 24.7 27.82 24.76 27.8 24.74C27.74 24.65 26.81 23.03 26.75 22.91C26.72 22.83 26.83 22.67 27.07 22.45C27.36 22.2 27.58 21.81 28.11 20.75C28.56 19.81 28.88 19.25 29.13 19C29.75 18.36 30.27 18.6 29.86 19.34ZM29.25 19.22C28.97 19.52 28.7 20.03 28 21.51C27.86 21.85 27.56 22.29 27.37 22.5L27 22.9L27.46 23.68L27.92 24.46L28.43 24.33C28.87 24.21 29.09 24.21 30.01 24.3C31.31 24.43 32 24.43 32.39 24.29C32.97 24.08 32.8 23.99 31.78 23.96C30.63 23.91 30.22 23.77 29.56 23.15C29.24 22.85 29.09 22.63 29 22.31C28.73 21.41 28.88 20.55 29.47 19.57C29.66 19.25 29.82 18.97 29.82 18.95C29.82 18.79 29.51 18.94 29.25 19.22ZM29.42 22.37C29.61 22.83 30.01 23.04 30.57 23C31.25 22.95 31.75 22.52 31.86 21.88C31.92 21.49 31.76 21.1 31.46 20.88C30.48 20.18 28.97 21.29 29.42 22.37Z" />
	<path id="Layer" class="shp2" d="M29.82 21.98C29.82 22.23 30.04 22.51 30.26 22.51C30.33 22.51 30.3 22.45 30.17 22.35C30.05 22.25 29.97 22.11 29.97 21.97C29.97 21.84 29.94 21.74 29.89 21.74C29.85 21.74 29.82 21.85 29.82 21.98Z" />
	<path id="Layer" fill-rule="evenodd" class="shp2" d="M22.12 25.27C22.2 25.26 23.28 27.05 23.28 27.19C23.28 27.22 23.12 27.39 22.91 27.58C22.54 27.92 22.45 28.08 21.69 29.68C21.07 31 20.29 31.71 20.01 31.21C19.94 31.08 19.98 30.94 20.18 30.58C20.66 29.71 20.81 29.35 20.85 28.92C20.87 28.56 20.86 28.51 20.78 28.66C20.01 29.95 18.15 29.86 17.9 28.51C17.74 27.65 18.57 26.74 19.54 26.72L19.88 26.71L19.45 26.5C19.09 26.33 18.89 26.3 18.18 26.3C17.28 26.3 17 26.22 17 25.96C17 25.48 17.92 25.27 19.43 25.42C20.74 25.55 21.34 25.54 21.73 25.39C21.89 25.33 22.08 25.27 22.12 25.27ZM18.44 27.49C18.02 28 18.02 28.63 18.46 29.05C18.96 29.51 19.74 29.44 20.28 28.88C20.83 28.3 20.78 27.53 20.17 27.16C19.63 26.83 18.87 26.97 18.44 27.49Z" />
	<path id="Layer" class="shp2" d="M19.74 27.65C19.84 27.73 19.96 27.92 20 28.06C20.06 28.28 20.09 28.29 20.14 28.16C20.22 27.96 19.94 27.55 19.7 27.52C19.55 27.49 19.56 27.51 19.74 27.65Z" />
	<path id="Layer" fill-rule="evenodd" class="shp2" d="M28.12 25.5C28.35 25.61 28.58 25.63 29.3 25.61C31.49 25.52 32.44 25.56 32.68 25.72C32.93 25.88 32.98 26.13 32.79 26.29C32.73 26.34 32.29 26.39 31.79 26.41C31.01 26.42 30.83 26.46 30.42 26.67C30.12 26.81 30.03 26.88 30.19 26.85C30.79 26.73 31.61 27.19 31.89 27.79C32.18 28.44 32.06 28.98 31.55 29.42C30.85 29.99 29.57 29.63 29.15 28.75C29.04 28.5 29.03 28.5 29.07 28.96C29.09 29.42 29.27 29.85 29.77 30.78C30.27 31.65 29.49 31.77 28.86 30.91C28.72 30.72 28.31 29.97 27.97 29.25C27.47 28.22 27.26 27.89 26.97 27.65L26.61 27.34L27.11 26.45C27.38 25.96 27.64 25.51 27.69 25.45C27.8 25.32 27.8 25.32 28.12 25.5ZM30.42 27.07C30.09 27.08 29.7 27.28 29.48 27.55C29.2 27.91 29.26 28.6 29.61 28.97C30.06 29.45 30.69 29.61 31.19 29.35C32.07 28.89 31.98 27.75 31.02 27.26C30.81 27.16 30.54 27.07 30.42 27.07Z" />
	<path id="Layer" class="shp2" d="M29.9 27.76C29.72 27.94 29.66 28.36 29.82 28.36C29.87 28.36 29.9 28.27 29.9 28.14C29.9 28.02 29.98 27.89 30.08 27.83C30.17 27.77 30.25 27.69 30.25 27.65C30.25 27.53 30.08 27.59 29.9 27.76Z" />
	<path id="Layer" fill-rule="evenodd" class="shp2" d="M24.96 27.59L26.09 27.59L26.14 27.93C26.2 28.41 26.45 28.88 27.16 29.87C27.92 30.92 28.2 31.53 28.17 32.01C28.14 32.33 28.12 32.36 27.88 32.36C27.66 32.36 27.59 32.29 27.28 31.74C26.9 31.07 26.53 30.64 26.11 30.39L25.83 30.23L26.04 30.5C26.33 30.9 26.38 31.73 26.13 32.22C25.58 33.29 24.21 33.22 23.7 32.1C23.48 31.62 23.49 31.13 23.75 30.65L23.97 30.24L23.7 30.4C23.31 30.62 22.89 31.12 22.6 31.7C22.31 32.28 22.16 32.43 21.89 32.39C21.72 32.37 21.68 32.3 21.66 32.04C21.63 31.59 21.91 30.98 22.66 29.92C23.37 28.92 23.71 28.27 23.71 27.92C23.71 27.8 23.74 27.67 23.77 27.65C23.8 27.61 24.34 27.59 24.96 27.59ZM25.82 27.76L25.26 27.77C24.05 27.81 23.99 27.82 23.93 28.14C23.86 28.54 23.58 29.04 22.89 29.99C22.21 30.95 21.9 31.56 21.9 31.96C21.9 32.21 21.92 32.24 22.03 32.14C22.11 32.08 22.27 31.82 22.4 31.56C22.92 30.51 23.93 29.79 24.91 29.78C25.89 29.78 26.94 30.52 27.49 31.61C27.63 31.9 27.79 32.15 27.84 32.19C28 32.29 28.02 32.01 27.87 31.58C27.74 31.18 27.56 30.89 26.52 29.36C26.3 29.04 26.05 28.54 25.96 28.27L25.82 27.76ZM24.99 30.17C24.28 30.17 23.8 30.69 23.8 31.46C23.8 32.1 24.23 32.64 24.8 32.72C25.95 32.88 26.52 31.33 25.65 30.45C25.41 30.22 25.29 30.17 24.99 30.17Z" />
	<path id="Layer" class="shp2" d="M24.68 30.68C24.57 30.73 24.48 30.8 24.48 30.85C24.48 30.91 24.56 30.9 24.71 30.84C24.88 30.76 24.97 30.76 25.1 30.85C25.28 30.96 25.43 30.91 25.29 30.78C25.15 30.65 24.88 30.6 24.68 30.68Z" />
</svg>