<svg version="1.2" baseProfile="tiny-ps" xmlns="http://www.w3.org/2000/svg" viewBox="0 0 50 50" width="50" height="50">
	<title>empowerment (2)-svg</title>
	<style>
		tspan { white-space:pre }
		.shp0 { fill: #ffffff } 
		.shp1 { fill: none;stroke: #9b51e0;stroke-width: 2 } 
		.shp2 { fill: #9b51e0 } 
	</style>
	<g id="Folder 1">
		<g id="Layer">
			<path id="Layer" class="shp0" d="M25 43C15.05 43 7 34.95 7 25C7 15.05 15.05 7 25 7C34.95 7 43 15.05 43 25C43 34.95 34.95 43 25 43Z" />
			<path id="Layer" class="shp1" d="M25 44C14.49 44 6 35.51 6 25C6 14.49 14.49 6 25 6C35.51 6 44 14.49 44 25C44 35.51 35.51 44 25 44Z" />
		</g>
		<path id="Layer" class="shp2" d="M22.8 15.14C22.53 15.29 22.47 15.36 22.12 16.09C21.91 16.52 21.68 17.02 21.6 17.2L21.47 17.53L22.69 17.53L23.92 17.53L24.17 16.93C24.37 16.44 24.41 16.28 24.39 16.01C24.35 15.62 24.14 15.31 23.8 15.13C23.46 14.95 23.17 14.96 22.8 15.14Z" />
		<path id="Layer" class="shp2" d="M25.5 16.23C25.21 16.31 24.96 16.59 24.73 17.05C24.62 17.27 24.53 17.47 24.53 17.49C24.53 17.51 24.86 17.53 25.25 17.53C26.17 17.53 26.23 17.57 26.19 18.23C26.09 19.5 24.96 20.49 23.38 20.71L23.06 20.75L22.7 21.54C22.49 21.98 22.34 22.34 22.34 22.35C22.36 22.35 22.55 22.41 22.77 22.48C23.19 22.62 23.85 22.93 24.15 23.15C24.26 23.23 24.35 23.28 24.37 23.26C24.49 23.14 26.89 17.65 26.91 17.45C26.98 16.94 26.64 16.4 26.14 16.23C25.88 16.14 25.78 16.14 25.5 16.23Z" />
		<path id="Layer" class="shp2" d="M27.9 17.46C27.53 17.68 27.37 17.98 26.23 20.52C25.24 22.73 25.04 23.23 25.04 23.49C25.04 24.43 26.08 24.93 26.82 24.35C27 24.21 27.25 23.72 28.23 21.53C28.88 20.07 29.43 18.77 29.45 18.65C29.5 18.31 29.3 17.83 29.02 17.61C28.76 17.41 28.13 17.33 27.9 17.46Z" />
		<path id="Layer" class="shp2" d="M20.43 18.27C20.28 18.34 20.08 18.48 19.98 18.59C19.89 18.7 19.41 19.67 18.92 20.74C17.99 22.79 17.9 23.08 18.06 23.59C18.11 23.73 18.99 25 20.04 26.42L21.93 29L21.93 32.26L21.93 35.53L25.53 35.53L29.13 35.53L29.13 33.11L29.13 30.69L30.07 28.72L31 26.75L31 24.11C31 21.59 30.99 21.45 30.87 21.24C30.71 20.98 30.39 20.76 30.08 20.7C29.81 20.65 29.35 20.82 29.14 21.04C28.93 21.28 27.45 24.57 27.45 24.83C27.43 25.43 28.01 25.78 28.54 25.49C28.71 25.41 28.83 25.21 29.14 24.52C29.36 24.05 29.55 23.65 29.56 23.63C29.57 23.63 29.69 23.67 29.82 23.73L30.05 23.84L29.93 24.12C29.87 24.28 29.68 24.71 29.51 25.08C29.23 25.66 29.15 25.77 28.89 25.95C28.63 26.12 28.5 26.15 28.19 26.15C27.97 26.15 27.71 26.1 27.61 26.06C27.35 25.92 27.03 25.53 26.94 25.24L26.86 25.01L26.58 25.1C26.4 25.17 26.18 25.19 25.97 25.17C25.67 25.13 25.65 25.14 25.7 25.28C25.73 25.36 25.77 26.1 25.78 26.92L25.81 28.41L25.55 28.41L25.28 28.41L25.25 27.06C25.21 25.61 25.15 25.27 24.77 24.62C24.51 24.16 23.86 23.57 23.32 23.31C22.86 23.08 21.92 22.8 21.65 22.8C21.59 22.8 21.53 22.78 21.53 22.76C21.53 22.74 21.8 22.15 22.13 21.44L22.73 20.16L23.28 20.11C24.07 20.05 24.66 19.79 25.11 19.3C25.34 19.05 25.57 18.63 25.64 18.33L25.68 18.14L23.19 18.14C20.9 18.14 20.68 18.16 20.43 18.27Z" />
	</g>
</svg>