<svg width="40" height="40" viewBox="0 0 40 40" fill="none" xmlns="http://www.w3.org/2000/svg">
<path d="M20 38C10.05 38 2 29.95 2 20C2 10.05 10.05 2 20 2C29.95 2 38 10.05 38 20C38 29.95 29.95 38 20 38Z" fill="white"/>
<path d="M20 39C9.49 39 1 30.51 1 20C1 9.49 9.49 1 20 1C30.51 1 39 9.49 39 20C39 30.51 30.51 39 20 39Z" stroke="#9B51E0" stroke-width="2"/>
<path fill-rule="evenodd" clip-rule="evenodd" d="M23.6099 10H25.9999L25.9699 12.46C25.9499 15.2 25.9599 15.11 25.4699 15.37C25.2199 15.5 25.1599 15.52 24.9099 15.44C24.7699 15.39 24.5599 15.26 24.4699 15.15C24.2999 14.95 24.2899 14.91 24.2899 14C24.2899 13.48 24.2699 13.05 24.2399 13.05C24.2199 13.05 23.8499 13.39 23.4399 13.81L22.6799 14.57L22.9799 14.98C23.3499 15.47 23.7499 16.31 23.9199 16.92C24.0199 17.25 24.0499 17.6 24.0499 18.34C24.0499 19.28 24.0399 19.36 23.8199 19.99C23.1799 21.84 21.7699 23.19 19.9099 23.69L19.4399 23.82L19.4199 24.71L19.3999 25.6H22.3899V27.43H19.4099V30.35H17.6399V27.43H14.7299V25.67H17.6399V24.75C17.6399 24.08 17.6199 23.83 17.5599 23.81C17.5099 23.8 17.1599 23.69 16.7799 23.57C15.0199 23 13.6699 21.57 13.1599 19.73C12.9599 19.04 12.9499 17.74 13.1199 17.04C13.5899 15.12 15.0299 13.59 16.9299 12.98C17.2899 12.87 17.6299 12.82 18.3199 12.8C19.3699 12.76 19.8099 12.84 20.7899 13.23L21.3899 13.47L22.2199 12.6L23.0499 11.73L22.0599 11.7C21.0299 11.66 20.8399 11.61 20.6699 11.34C20.3899 10.91 20.5299 10.34 20.9699 10.12C21.1799 10.01 21.4499 10 23.6099 10ZM18.5199 14.48C17.2399 14.48 16.1799 15.03 15.4399 16.07C14.6099 17.23 14.4899 18.82 15.1499 20.07C15.4499 20.65 16.2699 21.45 16.8299 21.72C18.0399 22.32 19.5099 22.24 20.6099 21.54C21.3699 21.06 22.0199 20.18 22.2799 19.3C22.4199 18.83 22.4199 17.83 22.2899 17.33C21.9399 16 20.8699 14.93 19.5399 14.58C19.3299 14.52 18.8799 14.48 18.5199 14.48Z" fill="#9B51E0"/>
<path d="M16.29 17.05V17.94H18.56H20.83V17.05V16.17H18.56H16.29V17.05Z" fill="#9B51E0"/>
<path d="M16.29 19.53V20.45H18.56H20.83V19.53V18.62H18.56H16.29V19.53Z" fill="#9B51E0"/>
</svg>
