<svg version="1.2" baseProfile="tiny-ps" xmlns="http://www.w3.org/2000/svg" viewBox="0 0 40 40" width="40" height="40">
	<title>inclusitivity-svg</title>
	<defs>
		<clipPath clipPathUnits="userSpaceOnUse" id="cp1">
			<path d="M12 11L29 11L29 28L12 28L12 11Z" />
		</clipPath>
	</defs>
	<style>
		tspan { white-space:pre }
		.shp0 { fill: #ffffff } 
		.shp1 { fill: none;stroke: #9b51e0;stroke-width: 2 } 
		.shp2 { fill: #9b51e0 } 
	</style>
	<g id="Layer">
		<path id="Layer" class="shp0" d="M20 38C10.05 38 2 29.95 2 20C2 10.05 10.05 2 20 2C29.95 2 38 10.05 38 20C38 29.95 29.95 38 20 38Z" />
		<path id="Layer" class="shp1" d="M20 39C9.49 39 1 30.51 1 20C1 9.49 9.49 1 20 1C30.51 1 39 9.49 39 20C39 30.51 30.51 39 20 39Z" />
	</g>
	<g id="Clip-Path" clip-path="url(#cp1)">
		<g id="Layer">
			<path id="Layer" fill-rule="evenodd" class="shp2" d="M28.83 24.43C28.69 24.64 28.47 24.78 28.22 24.82C27.93 24.87 27.65 24.79 27.45 24.62L27.45 26.49C27.45 27.01 27.03 27.43 26.51 27.43C26.4 27.43 26.29 27.41 26.19 27.37C26.06 27.74 25.71 28 25.31 28C24.9 28 24.55 27.74 24.42 27.37C24.32 27.41 24.21 27.43 24.1 27.43C23.67 27.43 23.31 27.14 23.2 26.75C23.11 26.78 23 26.8 22.9 26.8C22.5 26.8 22.16 26.55 22.03 26.21L20.14 26.21L19.59 26.76C19.12 27.23 18.54 27.54 17.9 27.67L16.29 27.98C16.23 27.99 16.17 28 16.11 28C15.92 28 15.73 27.94 15.57 27.83C15.36 27.69 15.22 27.47 15.18 27.22C15.13 26.93 15.21 26.65 15.38 26.45L13.51 26.45C12.99 26.45 12.57 26.03 12.57 25.51C12.57 25.4 12.59 25.29 12.63 25.19C12.26 25.06 12 24.71 12 24.31C12 23.9 12.26 23.55 12.63 23.42C12.59 23.32 12.57 23.21 12.57 23.1C12.57 22.67 12.86 22.31 13.25 22.2C13.22 22.11 13.2 22 13.2 21.9C13.2 21.5 13.45 21.16 13.79 21.03L13.79 19.14L13.24 18.59C12.77 18.12 12.46 17.54 12.33 16.9L12.02 15.29C11.97 15.04 12.02 14.79 12.17 14.57C12.31 14.36 12.53 14.22 12.78 14.18C13.07 14.13 13.35 14.21 13.55 14.38L13.55 12.51C13.55 11.99 13.97 11.57 14.49 11.57C14.6 11.57 14.71 11.59 14.81 11.63C14.94 11.26 15.29 11 15.69 11C16.1 11 16.45 11.26 16.58 11.63C16.68 11.59 16.79 11.57 16.9 11.57C17.33 11.57 17.69 11.86 17.8 12.25C17.9 12.22 18 12.2 18.1 12.2C18.5 12.2 18.84 12.45 18.97 12.79L20.86 12.79L21.41 12.24C21.88 11.77 22.46 11.46 23.11 11.33L24.71 11.02C24.96 10.97 25.22 11.02 25.43 11.17C25.64 11.31 25.78 11.53 25.83 11.78C25.88 12.07 25.79 12.35 25.62 12.55L27.49 12.55C28.01 12.55 28.43 12.97 28.43 13.49C28.43 13.6 28.41 13.71 28.37 13.81C28.74 13.94 29 14.29 29 14.69C29 15.1 28.74 15.45 28.37 15.58C28.41 15.68 28.43 15.79 28.43 15.9C28.43 16.33 28.14 16.69 27.75 16.8C27.78 16.89 27.8 17 27.8 17.1C27.8 17.5 27.55 17.84 27.21 17.97L27.21 19.86L27.76 20.41C28.23 20.88 28.54 21.46 28.67 22.1L28.98 23.71C29.03 23.96 28.98 24.21 28.83 24.43ZM19.04 16.08L21 16.08C21.09 16.08 21.17 16.12 21.23 16.18L21.65 16.6C22.15 17.1 22.81 17.38 23.51 17.38L26.86 17.38C27.01 17.38 27.14 17.25 27.14 17.1C27.14 16.97 27.03 16.85 26.9 16.83L25.69 16.83C25.51 16.83 25.36 16.69 25.36 16.5C25.36 16.32 25.51 16.17 25.69 16.17L27.5 16.17C27.64 16.17 27.77 16.05 27.77 15.9C27.77 15.76 27.66 15.65 27.53 15.63L25.69 15.63C25.51 15.63 25.36 15.48 25.36 15.3C25.36 15.11 25.51 14.97 25.69 14.97L28.06 14.97C28.21 14.97 28.34 14.84 28.34 14.69C28.34 14.54 28.21 14.42 28.06 14.42L25.69 14.43C25.51 14.43 25.36 14.28 25.36 14.09C25.36 13.91 25.51 13.76 25.69 13.76L27.53 13.76C27.66 13.74 27.77 13.63 27.77 13.49C27.77 13.34 27.64 13.22 27.5 13.22L24.39 13.22C24.18 13.22 24 13.06 23.98 12.85C23.95 12.63 24.08 12.44 24.29 12.39L24.96 12.23C25.1 12.19 25.2 12.05 25.17 11.9C25.16 11.82 25.12 11.76 25.05 11.71C24.99 11.67 24.91 11.65 24.84 11.67L23.23 11.99C22.72 12.09 22.25 12.34 21.88 12.71L21.23 13.36C21.17 13.42 21.09 13.46 21 13.46L19.04 13.46L19.04 16.08ZM14.36 18.77C14.42 18.83 14.46 18.91 14.46 19L14.46 20.96L15.76 20.96L15.76 20.08C15.76 19.9 15.91 19.75 16.09 19.75C16.27 19.75 16.42 19.9 16.42 20.08L16.42 20.96L17.09 20.96L17.09 19C17.09 18.91 17.12 18.83 17.18 18.77L17.6 18.35C18.09 17.86 18.38 17.18 18.38 16.49L18.38 13.14C18.38 12.99 18.25 12.86 18.1 12.86C17.97 12.86 17.85 12.97 17.84 13.1L17.84 14.31C17.84 14.49 17.69 14.64 17.5 14.64C17.32 14.64 17.17 14.49 17.17 14.31L17.17 14.13C17.17 14.12 17.17 12.51 17.17 12.51C17.17 12.36 17.05 12.23 16.9 12.23C16.76 12.23 16.65 12.34 16.63 12.47L16.63 14.31C16.63 14.49 16.48 14.64 16.3 14.64C16.12 14.64 15.97 14.49 15.97 14.31L15.96 12.51C15.96 12.49 15.97 12.47 15.97 12.45L15.97 11.94C15.97 11.79 15.84 11.66 15.69 11.66C15.55 11.66 15.42 11.79 15.42 11.94L15.42 12.45C15.42 12.47 15.43 12.49 15.43 12.51L15.43 14.31C15.43 14.49 15.28 14.64 15.09 14.64C14.91 14.64 14.76 14.49 14.76 14.31L14.76 12.47C14.74 12.34 14.63 12.23 14.49 12.23C14.34 12.23 14.22 12.36 14.22 12.51L14.22 15.61C14.22 15.82 14.06 16 13.85 16.03C13.63 16.05 13.44 15.92 13.39 15.71L13.23 15.04C13.19 14.9 13.05 14.8 12.9 14.83C12.82 14.84 12.76 14.88 12.71 14.95C12.67 15.01 12.66 15.09 12.67 15.16L12.99 16.77C13.09 17.28 13.34 17.75 13.71 18.12L14.36 18.77ZM21.96 22.92L20 22.92C19.92 22.92 19.83 22.88 19.77 22.82L19.35 22.4C18.85 21.9 18.19 21.62 17.49 21.62L14.14 21.62C13.99 21.62 13.87 21.75 13.87 21.9C13.87 22.03 13.97 22.15 14.1 22.17L15.31 22.17C15.49 22.17 15.64 22.31 15.64 22.5C15.64 22.68 15.49 22.83 15.31 22.83L13.51 22.83C13.36 22.83 13.23 22.95 13.23 23.1C13.23 23.24 13.34 23.35 13.47 23.37L15.31 23.37C15.49 23.37 15.64 23.52 15.64 23.7C15.64 23.89 15.49 24.03 15.31 24.03L12.94 24.03C12.79 24.03 12.66 24.16 12.66 24.31C12.66 24.45 12.79 24.58 12.94 24.58L15.31 24.57C15.49 24.57 15.64 24.72 15.64 24.91C15.64 25.09 15.49 25.24 15.31 25.24L13.47 25.24C13.34 25.26 13.23 25.37 13.23 25.51C13.23 25.66 13.36 25.78 13.51 25.78L16.61 25.78C16.82 25.78 17 25.94 17.03 26.15C17.05 26.37 16.92 26.56 16.71 26.61L16.04 26.77C15.9 26.81 15.8 26.95 15.83 27.1C15.84 27.18 15.89 27.24 15.95 27.29C16.01 27.33 16.09 27.34 16.17 27.33L17.77 27.01C18.28 26.91 18.75 26.66 19.12 26.29L19.77 25.64C19.83 25.58 19.92 25.54 20 25.54L21.96 25.54L21.96 22.92ZM22.93 20.18L23.25 19.86L23.25 18.03C22.47 17.97 21.74 17.63 21.18 17.07L20.86 16.75L19.03 16.75C18.97 17.52 18.63 18.27 18.07 18.82L17.75 19.14L17.75 20.97C18.53 21.03 19.26 21.37 19.82 21.93L20.14 22.25L21.97 22.25C22.03 21.47 22.37 20.74 22.93 20.18ZM28.33 23.84L28.01 22.23C27.91 21.72 27.66 21.25 27.29 20.88L26.64 20.23C26.58 20.17 26.54 20.09 26.54 20L26.54 18.04L25.86 18.04L25.86 19.05C25.86 19.23 25.71 19.38 25.53 19.38C25.35 19.38 25.2 19.23 25.2 19.05L25.2 18.04L23.92 18.04L23.92 20C23.92 20.09 23.88 20.17 23.82 20.23L23.4 20.65C22.9 21.15 22.63 21.81 22.63 22.51L22.63 25.86C22.63 26.01 22.75 26.14 22.9 26.14C23.04 26.14 23.15 26.03 23.17 25.9L23.17 24.69C23.17 24.51 23.31 24.36 23.5 24.36C23.68 24.36 23.83 24.51 23.83 24.69L23.83 26.49C23.83 26.64 23.95 26.77 24.1 26.77C24.24 26.77 24.35 26.66 24.37 26.53L24.37 24.69C24.37 24.51 24.52 24.36 24.7 24.36C24.89 24.36 25.03 24.51 25.03 24.69L25.03 27.06C25.03 27.21 25.16 27.34 25.31 27.34C25.46 27.34 25.58 27.21 25.58 27.06L25.58 24.69C25.58 24.51 25.72 24.36 25.91 24.36C26.09 24.36 26.24 24.51 26.24 24.69L26.24 26.53C26.26 26.66 26.37 26.77 26.51 26.77C26.66 26.77 26.78 26.64 26.78 26.49L26.78 23.39C26.78 23.18 26.94 23 27.15 22.97C27.37 22.95 27.56 23.08 27.61 23.29L27.78 23.96C27.81 24.1 27.95 24.2 28.1 24.17C28.18 24.16 28.24 24.11 28.29 24.05C28.33 23.99 28.35 23.91 28.33 23.84Z" />
			<path id="Layer" class="shp2" d="M25.76 20.06C25.7 20 25.62 19.96 25.53 19.96C25.44 19.96 25.36 20 25.29 20.06C25.23 20.12 25.2 20.21 25.2 20.3C25.2 20.38 25.23 20.47 25.29 20.53C25.36 20.59 25.44 20.63 25.53 20.63C25.62 20.63 25.7 20.59 25.76 20.53C25.82 20.47 25.86 20.38 25.86 20.3C25.86 20.21 25.82 20.12 25.76 20.06Z" />
			<path id="Layer" class="shp2" d="M16.32 18.6C16.26 18.53 16.18 18.5 16.09 18.5C16 18.5 15.92 18.53 15.85 18.6C15.79 18.66 15.76 18.74 15.76 18.83C15.76 18.92 15.79 19 15.85 19.07C15.92 19.13 16 19.16 16.09 19.16C16.18 19.16 16.26 19.13 16.32 19.07C16.38 19 16.42 18.92 16.42 18.83C16.42 18.74 16.38 18.66 16.32 18.6Z" />
		</g>
	</g>
</svg>