<svg version="1.2" baseProfile="tiny-ps" xmlns="http://www.w3.org/2000/svg" viewBox="0 0 45 45" width="45" height="45">
	<title>movment-svg</title>
	<style>
		tspan { white-space:pre }
		.shp0 { fill: #ffffff } 
		.shp1 { fill: none;stroke: #9b51e0;stroke-width: 2 } 
		.shp2 { fill: #9b51e0 } 
	</style>
	<g id="Layer">
		<path id="Layer" class="shp0" d="M22 40C12.05 40 4 31.95 4 22C4 12.05 12.05 4 22 4C31.95 4 40 12.05 40 22C40 31.95 31.95 40 22 40Z" />
		<path id="Layer" class="shp1" d="M22 41C11.49 41 3 32.51 3 22C3 11.49 11.49 3 22 3C32.51 3 41 11.49 41 22C41 32.51 32.51 41 22 41Z" />
	</g>
	<path id="Layer" class="shp2" d="M18.19 13.05C17.94 13.1 17.72 13.22 17.51 13.41C17.37 13.53 17.36 13.54 17.24 13.51C17.15 13.48 17.07 13.42 16.98 13.32C16.82 13.12 16.6 13.04 16.41 13.09C16.13 13.18 15.99 13.38 16.01 13.69C16.05 14.05 16.34 14.35 16.85 14.54L17.09 14.63L17.16 14.86C17.43 15.74 18.51 16.1 19.31 15.57C19.58 15.39 19.84 15.01 19.89 14.7C19.91 14.61 19.93 14.59 20.14 14.53C20.67 14.35 21.03 13.99 21.03 13.62C21.03 13.3 20.8 13.04 20.53 13.05C20.34 13.06 20.1 13.2 20.04 13.33C20 13.43 19.92 13.48 19.73 13.52C19.65 13.54 19.61 13.52 19.46 13.38C19.26 13.2 19.01 13.07 18.73 13.03C18.49 12.99 18.45 12.99 18.19 13.05Z" />
	<path id="Layer" class="shp2" d="M26.15 13.03C25.92 13.08 25.65 13.22 25.47 13.38L25.3 13.54L25.13 13.5C25 13.47 24.95 13.44 24.88 13.34C24.53 12.81 23.7 13.24 23.93 13.83C24.02 14.08 24.22 14.27 24.57 14.44C24.74 14.52 24.92 14.6 24.97 14.61C25.03 14.62 25.06 14.66 25.08 14.74C25.14 15.09 25.5 15.53 25.85 15.69C26.64 16.05 27.58 15.63 27.82 14.79C27.88 14.61 27.89 14.6 28.02 14.55C28.57 14.39 28.99 13.98 28.99 13.62C28.99 13.42 28.88 13.21 28.71 13.11C28.57 13.03 28.55 13.03 28.38 13.07C28.23 13.1 28.17 13.14 28.02 13.29C27.91 13.4 27.8 13.48 27.71 13.51C27.57 13.55 27.57 13.55 27.42 13.41C27.21 13.22 27 13.1 26.74 13.05C26.48 12.99 26.37 12.99 26.15 13.03Z" />
	<path id="Layer" class="shp2" d="M15.71 16.8C15.48 16.88 15.45 16.95 14.69 19.26C14 21.36 13.97 21.44 14.01 21.58C14.09 21.88 14.41 22.07 14.69 21.98C14.98 21.9 14.98 21.91 15.67 19.78L16.3 17.83L16.49 17.82L16.69 17.81L16.69 18.09C16.69 18.34 16.61 18.65 15.77 21.88C15.27 23.81 14.84 25.42 14.83 25.45C14.82 25.5 14.88 25.51 15.75 25.51L16.69 25.51L16.69 27.51C16.69 29.39 16.69 29.54 16.75 29.66C16.93 30.06 17.43 30.12 17.68 29.77L17.75 29.66L17.77 27.59L17.79 25.52L18.51 25.51L19.23 25.51L19.23 27.53C19.23 29.51 19.23 29.56 19.3 29.7C19.49 30.1 20.05 30.09 20.25 29.69C20.31 29.56 20.31 29.48 20.31 27.53L20.31 25.51L21.25 25.51L22.19 25.51L22.16 25.41C22.15 25.36 21.73 23.75 21.23 21.82C20.42 18.73 20.31 18.29 20.31 18.07L20.31 17.81L20.51 17.81L20.71 17.81L21.35 19.75C22.05 21.88 22.05 21.87 22.34 21.95C22.48 21.99 22.5 21.99 22.64 21.91C22.73 21.87 22.82 21.79 22.85 21.73C22.89 21.67 23.2 20.76 23.55 19.7L24.18 17.78L24.42 17.78L24.65 17.78L24.65 18.03C24.65 18.26 24.54 18.72 23.76 21.79C23.26 23.71 22.85 25.33 22.84 25.38L22.82 25.47L23.74 25.47L24.65 25.47L24.65 27.51C24.65 29.51 24.65 29.56 24.73 29.7C24.92 30.1 25.48 30.09 25.67 29.69C25.74 29.56 25.74 29.48 25.74 27.53L25.74 25.51L26.46 25.51L27.18 25.52L27.2 27.59C27.21 29.8 27.21 29.74 27.39 29.88C27.68 30.1 28.07 30 28.22 29.66C28.28 29.54 28.28 29.4 28.28 27.51L28.28 25.51L29.22 25.51C30.09 25.51 30.15 25.5 30.13 25.45C30.12 25.42 29.9 24.57 29.64 23.57C29.38 22.58 28.97 21 28.73 20.06C28.33 18.55 28.28 18.34 28.28 18.09L28.28 17.81L28.48 17.82L28.67 17.83L29.29 19.73C29.62 20.77 29.93 21.67 29.96 21.72C30.08 21.89 30.2 21.96 30.4 21.96C30.73 21.96 30.97 21.76 30.97 21.48C30.97 21.34 29.6 17.17 29.5 17C29.46 16.94 29.37 16.86 29.29 16.83C29.15 16.76 29.04 16.76 26.49 16.76C24.78 16.76 23.78 16.77 23.7 16.79C23.46 16.86 23.41 16.95 22.94 18.35C22.7 19.06 22.49 19.64 22.48 19.64C22.47 19.64 22.28 19.08 22.06 18.39C21.84 17.71 21.64 17.11 21.62 17.06C21.59 17.01 21.51 16.92 21.44 16.87L21.32 16.78L18.57 16.77C16.5 16.76 15.79 16.77 15.71 16.8Z" />
</svg>