<svg version="1.2" baseProfile="tiny-ps" xmlns="http://www.w3.org/2000/svg" viewBox="0 0 395 310" width="395" height="310">
	<title>home-ill-svg</title>
	<defs>
		<clipPath clipPathUnits="userSpaceOnUse" id="cp1">
			<path d="M0 0L395 0L395 310L0 310L0 0Z" />
		</clipPath>
		<linearGradient id="grd1" gradientUnits="userSpaceOnUse"  x1="213.631" y1="275.353" x2="244.631" y2="235.853">
			<stop offset="0" stop-color="#1575bf"  />
			<stop offset="0.297" stop-color="#2277ba"  />
			<stop offset="0.508" stop-color="#9e5ea3"  />
			<stop offset="0.667" stop-color="#bc2190"  />
			<stop offset="0.849" stop-color="#bc2190"  />
			<stop offset="1" stop-color="#bc2190"  />
		</linearGradient>
	</defs>
	<style>
		tspan { white-space:pre }
		.shp0 { fill: #ff6584 } 
		.shp1 { fill: #f5eaff } 
		.shp2 { fill: #252036 } 
		.shp3 { fill: #f3f0dd } 
		.shp4 { fill: #85513c } 
		.shp5 { fill: #212120 } 
		.shp6 { opacity: 0.051;fill: #000000 } 
		.shp7 { fill: #0e0d15 } 
		.shp8 { opacity: 0.031;fill: #000000 } 
		.shp9 { opacity: 0.102;fill: #000000 } 
		.shp10 { fill: #8c5b79 } 
		.shp11 { fill: #d94b25 } 
		.shp12 { fill: #1575bf } 
		.shp13 { fill: #bc2190 } 
		.shp14 { fill: url(#grd1) } 
	</style>
	<g id="Clip-Path" clip-path="url(#cp1)">
		<g id="Layer">
			<path id="Layer" class="shp0" d="M284.36 172.8C284.36 172.8 267.56 178.4 267.56 207.19C267.56 235.99 259.56 257.59 267.56 258.39C275.56 259.19 321.95 259.99 321.95 259.99L284.36 172.8Z" />
			<path id="Layer" class="shp1" d="M289.15 92L309.95 76L338.75 86.4L357.95 82.4L369.95 100L344.35 119.2L309.95 129.6L287.55 113.6L289.15 92Z" />
			<path id="Layer" class="shp2" d="M367.43 89.66L375.5 90.53C375.5 90.53 382.42 90.52 381.24 132.12C380.06 173.72 375.52 231.95 375.52 231.95C375.52 231.95 377.42 261.71 367.92 259.56C358.42 257.42 348.78 257.67 353.25 253.11C357.72 248.56 361.08 221.51 361.08 221.51L357.06 123.52L367.43 89.66Z" />
			<path id="Layer" class="shp2" d="M309.95 77.52C309.95 77.52 279.56 75.2 274.75 77.6C269.95 80 265.95 103.2 265.95 103.2L265.16 121.6C265.16 121.6 270.44 160.01 276.6 161.2C282.75 162.4 281.95 168.8 278.75 171.2C275.56 173.6 304.35 295.99 313.15 296.79C321.95 297.59 331.55 286.39 331.55 286.39C331.55 286.39 349.15 282.39 353.15 279.19C357.15 275.99 358.46 194.5 358.46 182.5C358.46 182.5 358.46 181 358.46 178.5C358.46 175.5 358 171 358 171L354.75 134.4C354.75 134.4 360.35 103.2 374.75 100C374.75 100 368.35 92 365.95 92C363.55 92 348.35 95.2 343.55 100C338.75 104.8 333.95 120 322.75 113.6C311.55 107.2 302.75 96.8 305.15 92C307.55 87.2 309.95 77.52 309.95 77.52Z" />
			<path id="Layer" class="shp3" d="M382.63 92.9C382.28 96.3 381.61 99.79 379.66 102.59C376.85 106.64 371.94 108.58 367.33 110.29L352.59 115.77C349.78 116.91 346.88 117.81 343.93 118.47C342.51 118.74 341.08 118.91 339.64 118.97C334.03 119.11 328.45 118.02 323.31 115.76C316.83 113.03 311.01 108.95 305.44 104.65C302.03 102 298.67 99.23 295.88 95.93C293.73 93.41 291.86 90.3 292.01 86.97C292.16 85.37 292.54 83.8 293.12 82.29C295.23 75.87 296.78 69.27 297.75 62.58C298.78 55.46 299.12 48.26 298.76 41.07C298.63 38.43 298.39 35.79 298.76 33.17C300.02 23.78 303.23 17.32 310.72 11.54C312.31 10.32 318.83 8.78 320.76 8.22L321.12 8.13C324.57 7.42 331.36 9.8 334.56 10.89C340.7 12.95 346.05 16.87 349.88 22.1C353.72 27.32 355.84 33.6 355.96 40.08C356.01 42.41 355.93 45.06 357.3 46.83C357.48 47.06 357.68 47.27 357.89 47.46C358.66 48.09 359.65 48.47 360.45 49.08C362.68 50.78 363.05 53.99 362.67 56.76C362.3 59.53 361.38 62.29 361.74 65.06C361.83 65.68 361.97 66.29 362.17 66.88C362.96 69.26 364.56 71.37 366.12 73.38L372.45 81.56C373.6 83.05 374.88 84.62 376.66 85.18L376.85 85.24C377.92 85.53 379.09 85.42 380.11 85.87C382.61 86.85 382.91 90.23 382.63 92.9Z" />
			<path id="Layer" class="shp4" d="M305.59 36.41C302.86 41.66 301.98 47.68 301.87 53.6C301.8 56.62 301.94 59.7 302.9 62.57C303.78 64.87 304.91 67.06 306.27 69.1L312.28 78.87C313.09 80.19 313.97 81.58 315.36 82.29C316.74 82.99 318.59 82.88 320.23 82.68C324.14 82.2 328.11 81.59 331.62 79.8C336.14 77.5 339.49 73.46 342.7 69.53C343.73 68.57 344.51 67.36 344.97 66.02C345.44 64.69 345.56 63.25 345.35 61.86L344.66 46.25C344.67 44.66 344.44 43.08 343.96 41.57C342.59 37.89 338.73 35.9 335.44 33.76C330.6 30.61 325.14 25.48 318.88 25.84C313.13 26.19 308.09 31.62 305.59 36.41Z" />
			<path id="Layer" class="shp4" d="M30.22 149.21C29.94 150.63 29.96 152.08 30.26 153.49C31.33 157.35 35.84 158.99 39.79 159.66C45.36 160.59 51.32 160.67 56.38 158.16C58.36 157.1 60.22 155.85 61.96 154.44L69.07 149.01C70.26 148.24 71.27 147.21 72.02 146.01C72.51 144.98 72.78 143.86 72.8 142.72C72.99 139.81 72.59 136.88 71.62 134.13C70.65 131.38 69.14 128.84 67.17 126.69C65.2 124.54 62.81 122.81 60.15 121.6C57.49 120.39 54.62 119.73 51.7 119.67C50.92 119.61 50.13 119.71 49.4 119.98C48.57 120.4 47.83 120.98 47.22 121.68C43.37 125.42 38.37 126.09 35.89 131.02C33.01 136.73 31.1 142.88 30.22 149.21Z" />
			<path id="Layer" class="shp5" d="M58.19 8.67C53.68 11.28 50.04 15.16 46.86 19.28C44.44 22.43 42.19 25.81 41.49 29.69C40.49 35.36 42.68 42.08 38.86 46.37C37.13 48.29 34.49 49.24 32.87 51.27C31.71 52.72 31.21 54.57 30.73 56.36C29.83 59.76 28.92 63.24 29.16 66.75C29.49 71.56 31.95 76.01 32.45 80.81C33.04 86.47 30.84 92.08 28.67 97.38L24.41 107.87C28.3 106.5 32.59 107.08 36.69 107.33C51.23 108.19 66.14 104.64 80.22 108.36C81.91 108.81 83.57 109.36 85.26 109.74C94.23 111.73 103.51 108.93 112.27 106.16C113.53 105.77 115.02 104.98 114.85 103.69C114.74 103.19 114.5 102.72 114.15 102.35C107.54 93.86 102.15 83.46 103.57 72.75C104.83 63.45 111.13 54.73 109.47 45.49C108.51 40.17 105.06 35.72 102.44 30.98C100.83 28.04 99.54 24.93 97.67 22.16C95.81 19.39 93.35 16.92 90.94 14.52C88.52 12.12 85.99 9.61 83.03 7.81C76.37 3.75 64.84 4.84 58.19 8.67Z" />
			<path id="Layer" class="shp4" d="M63.12 85.31C63.15 86.75 62.86 88.17 62.28 89.48C61.48 90.98 59.95 91.94 58.5 92.82C51.56 97.04 44.57 101.19 37.54 105.27C41.66 115.9 45.91 126.72 53.2 135.5C67.05 152.1 90.56 158.67 111.97 155.59C115.19 155.13 118.57 154.37 120.88 152.09C122.77 150.25 123.64 147.69 124.31 145.17C126.52 136.74 126.77 127.92 125.04 119.38C123.78 113.35 121.26 107.11 116.03 103.86C114.04 102.73 111.93 101.86 109.73 101.24L91.94 95.46C91.07 95.17 90.11 94.83 89.68 94C89.43 93.37 89.36 92.68 89.49 92.01L90.87 77.65C91.15 74.64 91.36 71.32 89.57 68.89C88.08 66.86 85.53 65.94 83.1 65.28C79.41 64.27 67.26 60.59 64.41 64.06C62.94 65.87 63.78 72.46 63.66 74.77L63.12 85.31Z" />
			<path id="Layer" class="shp4" d="M113.32 101.13C120.19 102.79 127.67 105.44 130.86 111.75C132.75 115.52 132.75 119.88 132.71 124.08L132.08 188.46L114.69 189.17C116.74 177.86 118 166.41 118.47 154.93C118.75 150.12 118.62 145.3 118.08 140.51C116.7 130.11 112.1 120.5 106.64 111.65C105.38 109.63 98.67 102.21 99.72 99.81C100.99 97 110.7 100.5 113.32 101.13Z" />
			<path id="Layer" class="shp6" d="M126.83 134.12C128.01 136.5 128.55 139.15 129.09 141.74C129.66 144.52 130.23 147.34 130.09 150.18C129.93 152.13 129.6 154.07 129.11 155.97L127.22 164.35C126.46 167.69 125.64 171.16 123.55 173.88C123.35 174.18 123.07 174.42 122.73 174.55C122.43 174.62 122.12 174.59 121.83 174.48C119.75 173.8 118.26 171.89 117.55 169.82C116.84 167.76 116.8 165.53 116.82 163.34C116.86 154.08 117.62 144.79 116.77 135.55C116.53 132.94 114.34 126.4 118.73 126.69C121.94 126.89 125.55 131.54 126.83 134.12Z" />
			<path id="Layer" class="shp7" d="M128.07 249.44C128.07 249.74 128.07 250.07 128.03 250.35C128.03 251.13 127.97 251.9 127.94 252.69C127.26 270.39 127.39 292.66 121.89 309.81L38.04 309.81C37.77 308.97 37.55 308.11 37.32 307.26C33.8 293.96 30.26 280.34 31.4 266.63C31.52 264.82 31.78 263.02 32.19 261.25C32.19 261.14 32.24 261.04 32.28 260.94C32.51 260.01 32.87 259.11 33.35 258.27C33.49 258.01 33.65 257.77 33.83 257.54C33.93 257.41 34.04 257.29 34.15 257.17C34.48 256.81 34.88 256.51 35.32 256.29C37.51 255.22 43.33 256.64 46.59 257.17C47.03 257.24 47.42 257.29 47.75 257.32L56.86 258.13L59.21 258.34L77.08 259.94L79.48 260.15C85.09 260.63 90.71 261.03 96.34 260.66C107.61 259.91 116.72 249.2 128 249.41L128.07 249.44Z" />
			<path id="Layer" class="shp6" d="M37.69 175.94C38.23 177.65 38.18 179.49 38.32 181.28C38.82 187.04 41.51 192.4 42.43 198.12C43.86 207.11 40.81 216.14 38.02 224.81C35.22 233.48 32.69 242.31 32.98 251.35C33.18 257.02 34.67 262.88 38.59 266.96C44.09 272.69 52.83 273.52 60.78 273.99L89.44 275.7C95.05 276.03 100.71 276.36 106.25 275.48C111.8 274.59 117.3 272.37 121.16 268.29C123.42 265.8 125.15 262.88 126.25 259.71C127.34 256.85 127.93 253.82 127.99 250.76C127.99 247.13 127.12 243.57 126.39 240.02C123.24 224.61 123.07 208.75 122.92 193.02C122.86 185.78 122.8 178.47 124.38 171.4C125.2 167.75 126.44 164.19 127.3 160.54C130.11 148.43 127.77 134.29 118.28 126.25C117.47 125.56 116.4 124.88 115.39 125.28C114.65 125.58 114.25 126.37 113.88 127.08C112.1 130.44 109.62 133.38 106.6 135.7C103.58 138.01 100.09 139.64 96.38 140.48C92.4 141.34 88.28 141.26 84.22 140.96C78.92 140.57 73.57 139.78 68.71 137.66C63.84 135.53 59.44 131.91 57.27 127.06C51.82 131.06 52.51 139.34 49.44 145.36C47.46 149.23 43.97 152 40.3 154.17C37.46 155.87 31.53 156.9 29.6 159.65C25.61 165.41 36.16 171.06 37.69 175.94Z" />
			<path id="Layer" class="shp2" d="M37.69 174.36C38.23 176.07 38.18 177.91 38.32 179.7C38.82 185.47 41.51 190.83 42.43 196.54C43.86 205.54 40.81 214.56 38.02 223.24C35.22 231.91 32.69 240.73 32.98 249.78C33.18 255.45 34.67 261.31 38.58 265.38C44.15 271.13 52.88 271.95 60.83 272.39L89.49 274.1C95.1 274.43 100.76 274.76 106.3 273.88C111.85 272.99 117.35 270.76 121.21 266.69C123.47 264.2 125.2 261.28 126.3 258.11C127.39 255.25 127.98 252.22 128.04 249.16C128.04 245.53 127.17 241.97 126.44 238.42C123.29 223.01 123.12 207.15 122.97 191.42C122.91 184.18 122.85 176.87 124.43 169.8C125.25 166.15 126.49 162.59 127.34 158.94C130.16 146.83 127.82 132.69 118.33 124.65C117.52 123.96 116.45 123.28 115.44 123.68C114.7 123.98 114.3 124.77 113.93 125.48C112.16 128.85 109.67 131.8 106.65 134.12C103.63 136.43 100.14 138.07 96.43 138.91C92.45 139.78 88.33 139.69 84.27 139.39C78.97 139 73.62 138.22 68.75 136.09C63.89 133.96 59.49 130.34 57.31 125.5C51.87 129.49 52.56 137.78 49.49 143.79C47.51 147.66 44.02 150.43 40.35 152.6C37.51 154.3 31.58 155.34 29.65 158.08C25.61 163.84 36.15 169.49 37.69 174.36Z" />
			<path id="Layer" class="shp6" d="M108.39 190.09C108.39 188.41 109.19 186.84 110.02 185.38C111.17 183.38 112.4 181.43 113.71 179.53C114.66 177.98 115.9 176.65 117.38 175.6C118.91 174.64 120.95 174.34 122.52 175.22C122.86 175.49 123.27 175.66 123.7 175.72C124.33 175.72 124.74 175.09 125.3 174.85C126.31 174.39 127.47 175.13 128.18 175.99C128.88 176.86 129.43 177.88 130.45 178.38C130.81 178.56 131.22 178.64 131.59 178.8C132.88 179.37 133.57 180.76 134.15 182.05C134.61 182.91 134.88 183.85 134.94 184.81C134.94 186.5 133.68 187.88 132.49 189.09L129.44 192.24C128.67 193.12 127.77 193.88 126.76 194.49C126.26 194.79 125.7 194.97 125.11 195.02C124.53 195.08 123.94 195 123.39 194.79C123.12 194.62 122.81 194.54 122.49 194.56C122.25 194.65 122.05 194.81 121.91 195.01C121.24 195.84 120.61 196.7 120.02 197.6C119.53 198.54 118.81 199.35 117.94 199.96C117.01 200.47 115.6 200.3 115.18 199.33C115.13 199.13 115.03 198.96 114.9 198.81C114.51 198.51 114.02 199 113.58 199.19C112.83 199.51 111.94 198.88 111.69 198.11C111.51 197.31 111.56 196.47 111.82 195.7C111.26 195.25 110.44 195.52 109.72 195.56C108.23 195.64 108.53 194.68 108.57 193.81C108.66 192.53 108.4 191.35 108.39 190.09Z" />
			<path id="Layer" class="shp6" d="M64.42 64.8C63.35 66.1 63.5 69.91 63.61 72.8C63.96 73.13 64.3 73.43 64.66 73.74C70.16 78.32 77.03 80.91 84.18 81.1C85.61 81.21 87.04 80.99 88.37 80.47C89.34 79.99 90.2 79.3 90.89 78.46L90.89 78.39C91.18 75.38 91.39 72.05 89.59 69.62C88.1 67.6 85.55 66.68 83.13 66.02C79.42 65.01 67.26 61.33 64.42 64.8Z" />
			<path id="Layer" class="shp8" d="M42.95 144.04C42.61 147.01 41.31 149.77 40.03 152.47L32.58 168.11C31.4 166.09 30.17 163.87 30.45 161.55C30.65 160.41 31.03 159.31 31.58 158.29L38.08 144.49C38.57 143.46 40.24 137.64 41.36 137.57C43.04 137.5 43.07 143.01 42.95 144.04Z" />
			<path id="Layer" class="shp6" d="M62.91 34.16C59.08 40.3 58.37 48.09 60.19 55.09C61.56 60.34 64.28 65.8 62.44 70.92C61.05 74.77 57.19 78.6 59.11 82.22C59.54 83.02 60.23 83.69 60.48 84.57C60.91 86.06 59.95 87.54 59.28 88.93C55.79 96.21 59.96 104.58 62 112.39C63.51 118.17 63.82 124.18 64.12 130.15L60.34 120.5C58.78 128.6 55.4 136.24 50.46 142.84C53.24 142.88 55.99 143.3 58.65 144.1C56.68 143.87 54.7 144.38 53.1 145.53C51.49 146.69 50.38 148.41 49.98 150.35C49.59 152.29 49.94 154.31 50.96 156C51.98 157.69 53.6 158.94 55.5 159.5C51.64 160.35 47.64 157.72 45.79 154.22C43.94 150.72 43.8 146.58 44.02 142.63L40.87 142.89C44.02 135.32 45.36 127.13 44.78 118.96C44.52 115.35 43.33 111.08 39.87 110.02L38.83 119.6L34.62 111.09C34.35 110.34 33.83 109.71 33.16 109.29C32.64 109.13 32.12 109 31.58 108.91C29.93 108.4 29.28 106.24 29.8 104.59C30.32 102.94 31.65 101.69 32.91 100.51C37.19 96.5 41.46 92.23 43.78 86.85C45.93 81.85 46.24 76.28 46.47 70.84C46.73 64.46 46.94 58.08 47.1 51.7C47.2 46.66 47.27 41.59 48.36 36.68C50.24 28.36 55.28 20.63 62.69 16.38C70.1 12.13 79.77 11.75 87.06 16.16C91.47 18.82 94.72 22.92 97.9 26.94L107.03 38.46C108.92 40.85 110.84 43.31 111.72 46.21C113.33 51.58 111.09 57.31 108.36 62.22C105.62 67.12 102.34 71.95 101.67 77.51C100.91 83.94 103.77 90.18 106.57 96.02C110.12 103.44 113.72 110.95 119.07 117.19C121.79 120.37 125.08 123.46 125.84 127.57C125.27 128.04 124.58 128.37 123.85 128.53C123.12 128.69 122.36 128.68 121.64 128.49C123.8 137.12 125.53 145.83 126.83 154.65C119.08 149.54 111.57 144.1 104.3 138.34C104 139.77 103.34 141.1 102.39 142.22C101.43 143.32 100.21 144.18 98.84 144.69C98.62 142.25 99.47 139.84 99.59 137.39C99.71 134.94 98.77 132.08 96.44 131.35C95.08 130.92 93.47 131.28 92.32 130.45C91.48 129.82 91.15 128.75 90.87 127.73L85.62 108.45C82.43 108.3 79.26 109.06 76.49 110.66C80.44 108.45 83.38 104.8 84.68 100.46L73.75 100.29C76.64 97.56 79.43 94.75 82.13 91.84C86.07 87.61 89.83 83.16 92.69 78.14C100.73 64.08 100.84 45.82 92.97 31.66C91.67 29.31 90.12 27.02 87.94 25.48C80.06 20.01 67.22 27.24 62.91 34.16Z" />
			<path id="Layer" class="shp6" d="M42.65 238.02L49.46 247.21C52.2 250.91 54.97 254.65 58.43 257.69C65.7 264.09 75.43 266.97 83.22 272.8C88.07 276.43 92.04 281.12 94.81 286.51C96.17 289.15 96.99 292.94 94.57 294.69C92.42 296.23 89.47 294.87 87.21 293.5L75.01 286.13C71.46 283.98 67.85 281.78 65.13 278.65C63 276.19 61.51 273.26 59.73 270.53C57.01 266.36 53.63 262.66 49.71 259.58C47.31 257.69 44.67 256.04 42.68 253.74C39.45 250.06 38.08 245.13 37.11 240.33C36.79 238.73 34.37 228.63 36.24 228.5C37.3 228.4 41.7 236.73 42.65 238.02Z" />
			<path id="Layer" class="shp9" d="M37.37 174.47C37.37 174.47 64.52 187.46 95.22 176.04L99.55 176.04C99.55 176.04 112.54 183.13 122.37 174.86L123.06 199.04L42.47 196.52L37.37 174.47Z" />
			<path id="Layer" class="shp10" d="M188.3 0.76C187.48 0.31 186.56 -0.15 185.64 0.04C183.47 0.49 182.85 4.14 180.64 4.04C179.57 3.99 178.81 3.03 177.85 2.55C176.9 2.07 175.28 2.68 175.66 3.68C173.86 5.38 171.13 0.69 169.03 2.01C168.57 2.3 168.31 2.85 167.86 3.15C167.09 3.68 166.04 3.42 165.19 3.05C164.33 2.69 163.42 2.23 162.51 2.42C161.61 2.61 161.01 3.97 161.76 4.52L154.74 4.48C154.56 4.97 154.48 5.5 154.51 6.02C154.55 6.54 154.69 7.05 154.93 7.51L149.8 7.71C149.78 8.63 150.03 9.54 150.53 10.31C149.13 10.11 147.7 10.19 146.33 10.56C144.96 10.92 143.68 11.56 142.57 12.44L144.74 14.12C142.54 14.23 140.39 14.74 138.37 15.61L139.49 17.5C138.25 17.5 137.06 17.96 136.13 18.78C135.2 19.61 134.61 20.74 134.46 21.97L136.45 22.72C135.27 23.05 134.18 23.63 133.24 24.41C132.3 25.18 131.54 26.15 131 27.24L132.53 27.92C131.39 30.48 129.33 32.5 126.75 33.59C127.91 33.9 128.94 34.58 129.69 35.53C130.43 36.48 130.84 37.64 130.86 38.84C129.19 37.81 126.86 39.27 126.35 41.16C125.84 43.06 126.59 45.06 127.5 46.83C128.12 45.56 128.26 44.1 127.89 42.73C128.38 43 128.81 43.37 129.14 43.81C129.47 44.26 129.7 44.78 129.81 45.33C129.92 45.87 129.91 46.44 129.77 46.98C129.64 47.52 129.38 48.02 129.03 48.46C128.55 48.84 128.12 49.29 127.77 49.8C127.14 51.06 128.23 52.42 129.23 53.39C127.65 54.15 125.93 55.06 125.32 56.7C124.86 57.96 125.13 59.3 125.39 60.6C125.66 61.89 125.89 63.27 125.39 64.47C124.89 65.68 123.25 66.48 122.19 65.73C122.1 66.34 122.21 66.95 122.5 67.49C122.79 68.03 123.25 68.45 123.81 68.7C124.37 68.95 124.99 69.01 125.59 68.87C126.18 68.73 126.72 68.4 127.1 67.93C127.77 67.12 128.82 65.83 129.45 66.67C126.89 68.6 126.98 73.09 129.62 74.91C128.77 74.43 127.73 75.23 127.29 76.08C126.52 77.51 126.44 79.43 127.5 80.67C128.55 81.91 130.83 81.98 131.67 80.58C130.79 82.39 133.35 84.17 135.32 83.78C137.29 83.39 138.9 81.89 140.84 81.39C142.79 80.89 145.49 82.21 144.99 84.16C144.21 83.79 143.34 83.62 142.47 83.68C142.04 83.73 141.65 83.93 141.36 84.25C141.06 84.56 140.9 84.98 140.9 85.41C142.33 86.63 143.93 87.93 145.82 87.9C147.7 87.86 149.51 85.67 148.45 84.12C149 83.15 150.59 83.91 150.93 84.97C151.26 86.03 151 87.23 151.46 88.24C151.66 88.61 151.94 88.92 152.29 89.15C152.64 89.38 153.04 89.53 153.45 89.58C153.87 89.62 154.29 89.57 154.68 89.42C155.07 89.27 155.42 89.03 155.69 88.72C156.19 89.29 157.1 89.1 157.82 88.87C162.11 87.44 166.98 85.41 168.2 81.06C168.58 79.7 168.57 78.17 169.46 77.05C170.12 76.29 171 75.75 171.98 75.51C176.31 74.2 180.97 75.66 185.08 77.53C189.2 79.39 193.27 81.71 197.74 82.19C200.68 82.5 203.76 82.03 206.5 83.14C207.17 83.5 207.91 83.74 208.68 83.83C209.45 83.83 210.3 83.26 210.22 82.49C210.16 82.02 209.78 81.65 209.55 81.23C209.43 80.98 209.36 80.7 209.34 80.42C209.33 80.14 209.38 79.85 209.47 79.59C209.57 79.32 209.72 79.08 209.92 78.87C210.11 78.67 210.35 78.5 210.61 78.39C210.53 79.01 210.61 79.64 210.85 80.22C211.09 80.8 211.48 81.31 211.97 81.69C212.48 82.06 213.11 82.22 213.73 82.16C214.36 82.1 214.94 81.82 215.37 81.36C216.16 80.39 215.78 78.66 214.6 78.26C215.72 77.63 216.55 76.57 216.91 75.33C217.26 74.09 217.11 72.75 216.49 71.62C219.51 69.86 220.22 65.12 217.83 62.56C219.19 61.88 220.28 60.76 220.93 59.38C221.57 58 221.74 56.45 221.39 54.97C222.65 54.48 223.91 53.93 224.76 52.88C225.61 51.82 225.72 50.11 224.7 49.25C225.98 45.9 226.7 42.37 226.82 38.78C226.86 37.75 226.49 36.36 225.47 36.42C226.33 34.95 227.2 33.06 226.25 31.64C225.87 31.1 225.28 30.72 224.99 30.13C224.24 28.74 225.49 26.99 225.04 25.47C224.64 24.1 223.07 23.5 221.84 22.75C220.03 21.65 218.7 19.91 216.98 18.64C215.27 17.37 212.88 16.59 211.07 17.69C210.84 15.93 210.22 14.23 209.26 12.74C208.3 11.24 207.01 9.98 205.5 9.04C202.35 7.15 201.26 4.36 197 3.83C195.62 3.66 193.93 4.18 192.63 3.74C191.08 3.16 189.75 1.54 188.3 0.76Z" />
			<path id="Layer" class="shp6" d="M181.89 42.21C180.54 43.56 181.65 46.18 180.35 47.59C179.72 48.27 178.65 48.49 178.15 49.28C177.52 50.31 178.15 51.71 177.75 52.85C177.23 54.24 175.34 54.65 174.68 56C173.86 57.65 175.14 60.24 173.55 61.17C172.96 61.53 172.1 61.48 171.73 62.06C171.36 62.64 171.73 63.4 171.73 64.08C171.73 65.34 170.4 66.12 169.53 67.05C168.66 67.97 168.56 69.97 169.82 70.06C169.16 71.13 168.19 71.96 167.03 72.43C168.21 73.13 167.93 74.94 167.08 76.05C166.23 77.16 164.95 77.83 164.38 79.09C164.07 79.72 163.97 80.43 163.68 81.06C162.68 83.26 159.63 83.93 157.46 82.91C155.28 81.89 153.92 79.62 153.25 77.31C151.78 72.22 153.07 66.67 151.83 61.52C151.11 58.54 149.55 55.69 149.67 52.62C149.77 50.18 150.93 47.93 152.12 45.79C155.09 40.48 158.36 35.34 161.92 30.41C165.33 25.68 169.47 20.85 175.17 19.64C178.54 18.93 182.04 19.59 185.37 20.46C195.13 23.03 204.56 27.6 211.57 34.84C213.74 36.96 215.45 39.49 216.61 42.29C217.67 45.12 217.82 48.39 216.53 51.11C215.78 52.67 214.55 54.26 215.04 55.94C215.26 56.45 215.46 56.97 215.62 57.5C216.08 60.02 211.85 61.28 211.85 63.8C211.85 64.49 212.19 65.16 212.1 65.85C211.92 67.24 210.21 67.82 209.41 68.99C208.28 70.7 209.27 73.45 207.67 74.72C206.91 75.35 205.64 75.47 205.35 76.41C205.16 77.04 205.52 77.67 205.49 78.3C205.43 79.43 204.23 80.12 203.6 81.03C202.97 81.95 203.45 83.82 204.49 83.38L201.59 85.42L202.36 87.01C201.73 88.34 199.7 88.46 198.66 87.44C197.62 86.42 197.5 84.73 197.97 83.35C198.53 82 199.32 80.76 200.29 79.67C202.1 77.35 203.77 74.91 205.28 72.38C206.54 70.29 207.71 67.93 207.38 65.51C207.12 63.55 205.89 61.6 206.54 59.73L208.64 58.98L205.09 54.81L206.86 54.39C206.28 53.88 205.84 53.23 205.6 52.5C205.5 52.13 205.54 51.74 205.73 51.41C205.91 51.08 206.21 50.83 206.58 50.72C207.63 47.61 201.54 45.05 203.16 42.15L201.56 42.15C201.54 40.58 200.9 39.07 199.78 37.95C198.53 36.78 196.9 36.09 195.19 36.01C193.13 35.9 187.63 36.22 185.91 37.57C184.89 38.37 185.38 39.34 184.7 40.21C183.97 41.28 182.75 41.35 181.89 42.21Z" />
			<path id="Layer" class="shp4" d="M214.44 126.79C214.09 129.04 213.32 131.2 212.17 133.16C210.81 135.06 209.02 136.61 206.94 137.66C205.55 138.44 204.07 139.1 202.62 139.73L192.27 144.22C189.07 146 185.33 146.53 181.77 145.72L162.61 143.04C160.32 142.72 158 142.41 155.69 141.96C154.23 141.7 152.77 141.39 151.35 141.02C148.33 140.29 145.43 139.15 142.71 137.65C136.71 134.22 134.34 127.45 134.96 120.57C135.55 114.01 138.19 109.18 142.98 104.66L144.3 103.4L144.42 103.3L147.63 100.25L152.32 95.85C154.44 93.96 156.38 91.89 158.12 89.65C161.97 84.37 163.33 76.15 168.48 71.92C172.85 68.34 182.77 73.5 186.78 76.2C187.44 76.58 187.99 77.12 188.38 77.77C188.67 78.52 188.76 79.34 188.62 80.14C188.17 85.1 186.75 89.92 184.47 94.34C184.02 95.21 183.53 96.14 183.69 97.1C183.75 97.42 183.87 97.72 184.04 97.99C184.59 98.7 185.31 99.27 186.13 99.64C187.25 100.23 188.41 100.75 189.59 101.21C193.84 102.9 198.36 103.98 202.6 105.77C208 108.06 213.26 111.98 214.68 117.67C215.44 120.65 215.05 123.8 214.44 126.79Z" />
			<path id="Layer" class="shp2" d="M189.61 101.21C190.43 104.11 194.48 118.08 196.94 118.78C197.87 119.04 201.92 127.08 206.91 137.67C216.81 158.65 230.38 189.63 230.38 189.63L172.78 188.25L147.74 187.62L151.36 141L152.07 131.74L158.58 129.48L161.13 128.59L160.73 114.03C160.73 114.03 155.13 99.81 144.41 103.26L147.62 100.22C152.9 100.16 158.72 103.59 164.27 114.03C164.27 114.03 196.54 157.32 193.39 117.18C193.39 117.18 187.88 99.87 182.37 97.11L184.06 97.95L189.61 101.21Z" />
			<path id="Layer" class="shp6" d="M185.91 89.5C186.69 86.95 187.2 84.33 187.44 81.68C187.57 80.88 187.49 80.06 187.19 79.31C186.8 78.65 186.25 78.11 185.59 77.73C181.59 75.04 171.67 69.88 167.3 73.46C166.83 73.85 166.4 74.27 165.99 74.72C170.53 81.98 177.64 87.26 185.91 89.5Z" />
			<path id="Layer" class="shp4" d="M163.55 64.24C166.26 76.43 177.08 86.11 189.37 88.45C192.08 88.97 195.38 88.95 197.03 86.73C198.09 85.3 198.13 83.34 198.92 81.69C199.59 80.27 200.81 79.18 201.84 78.02C203.26 76.41 204.51 74.65 205.56 72.77C209.15 66.57 211.44 59.42 210.82 52.28C210.45 49.1 209.8 45.96 208.86 42.9C207.86 39.22 206.67 35.25 203.57 33.02C196.79 28.11 185.6 29.74 178.55 32.97C171.19 36.34 165.96 43.3 163.94 51.04C162.76 55.34 162.63 59.87 163.55 64.24Z" />
			<path id="Layer" class="shp10" d="M181.89 41.42C180.54 42.77 181.65 45.4 180.36 46.8C179.73 47.49 178.65 47.7 178.15 48.49C177.52 49.52 178.15 50.92 177.75 52.06C177.23 53.45 175.34 53.86 174.68 55.21C173.86 56.86 175.14 59.45 173.55 60.39C172.96 60.74 172.1 60.7 171.73 61.28C171.36 61.85 171.73 62.61 171.73 63.3C171.73 64.56 170.4 65.34 169.53 66.26C168.66 67.19 168.56 69.18 169.82 69.28C169.17 70.34 168.19 71.17 167.03 71.64C168.21 72.34 167.94 74.16 167.09 75.27C166.24 76.37 164.98 77.11 164.38 78.34C164.08 78.97 163.97 79.68 163.69 80.32C162.69 82.51 159.64 83.18 157.46 82.16C155.29 81.14 153.93 78.87 153.26 76.56C151.79 71.47 153.08 65.92 151.84 60.77C151.12 57.79 149.56 54.94 149.68 51.87C149.78 49.43 150.94 47.18 152.13 45.04C155.1 39.73 158.37 34.59 161.93 29.66C165.34 24.93 169.48 20.1 175.18 18.89C178.55 18.18 182.05 18.84 185.38 19.71C195.13 22.28 204.56 26.85 211.58 34.09C213.75 36.21 215.46 38.74 216.61 41.54C217.68 44.37 217.83 47.64 216.53 50.36C215.79 51.92 214.56 53.51 215.05 55.19C215.27 55.7 215.46 56.22 215.63 56.75C216.09 59.27 211.85 60.53 211.85 63.05C211.85 63.74 212.19 64.41 212.11 65.1C211.92 66.49 210.22 67.07 209.42 68.25C208.29 69.95 209.28 72.7 207.68 73.97C206.91 74.6 205.65 74.72 205.36 75.66C205.17 76.29 205.53 76.92 205.5 77.55C205.44 78.68 204.24 79.37 203.61 80.28C202.98 81.2 203.46 83.07 204.5 82.63L201.6 84.67L202.37 86.26C201.74 87.59 199.7 87.71 198.66 86.69C197.63 85.67 197.51 83.98 197.98 82.6C198.54 81.25 199.32 80.01 200.29 78.92C202.11 76.6 203.78 74.17 205.29 71.63C206.55 69.54 207.72 67.18 207.39 64.76C207.13 62.81 205.9 60.85 206.55 58.98L208.64 58.23L205.1 54.06L206.87 53.64C206.28 53.13 205.85 52.48 205.61 51.75C205.51 51.38 205.55 50.99 205.73 50.66C205.92 50.33 206.22 50.08 206.59 49.97C207.64 46.86 201.55 44.3 203.17 41.4L201.57 41.4C201.54 39.83 200.91 38.32 199.79 37.2C198.54 36.03 196.91 35.34 195.2 35.27C193.14 35.15 187.64 35.47 185.92 36.82C184.9 37.62 185.39 38.59 184.71 39.46C183.97 40.49 182.75 40.57 181.89 41.42Z" />
			<path id="Layer" class="shp11" d="M234.31 24.32C226.19 29.74 223.91 40.37 220.54 49.5C219.23 53.03 217.68 56.49 216.94 60.2C216 64.83 216.38 69.6 216.31 74.31C216.01 84.23 213.56 93.97 209.14 102.84C204.71 111.72 198.41 119.53 190.66 125.73L237.13 139.58C240.07 140.52 243.07 141.29 246.1 141.88C250.51 142.66 254.99 142.7 259.46 142.74L287.91 142.99C290.06 142.99 292.57 142.85 293.78 141.1C294.32 140.2 294.57 139.15 294.49 138.1C294.39 132.34 290.01 127.66 287.86 122.32C284.39 113.73 292.31 105.84 292.01 96.58C291.88 92.28 291.73 85.92 292.01 81.63C292.64 71.69 292.74 62.61 291.61 52.71C290.35 41.59 280.54 33.7 271.5 27.09C261.68 19.91 245.05 17.16 234.31 24.32Z" />
			<path id="Layer" class="shp4" d="M244.76 70.18L244.56 102.65C239.27 102.93 234.02 103.72 228.89 105.02C224.6 106.09 220.86 108.72 218.4 112.4C215.94 116.08 214.94 120.54 215.59 124.91L221.74 166.79L288.24 170.73L288.24 130.19C287.29 125.63 284.61 121.61 280.78 118.97C276.94 116.33 272.23 115.27 267.63 116L265.02 116.42L270.93 82.58L244.76 70.18Z" />
			<path id="Layer" class="shp2" d="M230 101.86C230 101.86 243.38 129.02 244.56 134.53C245.75 140.04 220.16 159.32 216.62 157.35C213.08 155.38 213.47 203.79 213.47 203.79L281.95 197.09L283.52 187.25C283.52 187.25 301.23 179.77 285.09 149.86L280.37 147.89C280.37 147.89 276.44 163.63 246.92 133.73L232.76 100.67L230 101.86Z" />
			<path id="Layer" class="shp6" d="M282.93 186.67C282.93 186.67 269.55 187.85 268.37 185.09L266.01 184.69C266.01 184.69 262.07 193.35 225.08 184.3L213.43 183.9L210.91 189.82L283.04 192.18L282.93 186.67Z" />
			<path id="Layer" class="shp6" d="M245.42 92.03C246.22 92.59 247.09 93.05 247.99 93.41C250.23 94.28 252.7 94.36 255.09 94.42C259.42 94.53 264.11 94.55 267.59 91.98C269.17 90.77 270.42 89.19 271.22 87.37L271.71 84.55L245.54 72.17L245.42 92.03Z" />
			<path id="Layer" class="shp4" d="M229.17 52.65C228.37 59.14 229.13 65.73 231.37 71.87C233.62 78.01 237.28 83.53 242.07 87.98C243.55 89.43 245.28 90.6 247.19 91.42C249.43 92.28 251.89 92.36 254.29 92.42C258.61 92.54 263.3 92.55 266.79 89.98C270.92 86.94 272 81.34 272.77 76.27L275.19 60.46C275.9 55.85 276.55 50.9 274.45 46.74C270.86 39.63 257 33.06 249.19 33.88C238.96 34.97 230.51 42.58 229.17 52.65Z" />
			<path id="Layer" class="shp6" d="M239.29 47.74C237.06 52.45 235.51 57.69 236.34 62.86C237.05 67.26 239.44 71.14 241.84 74.88C247.26 83.33 253.21 92.01 254.31 101.99C254.7 105.56 254.42 109.29 252.87 112.52C251.31 115.75 248.33 118.42 244.78 119C243.81 119.21 242.79 119.1 241.89 118.68C240.77 118.05 240.17 116.86 239.6 115.73C236.87 110.31 223.95 108.75 217.99 109.96C217.16 110.13 224.32 106.18 223.48 106.06C221.04 105.7 220.59 102.4 220.77 99.93L224.2 52.42C224.4 49.73 224.6 47.01 225.46 44.45C228.61 35.25 239.48 31.05 249.21 30.77C252.23 30.64 255.25 30.91 258.2 31.56C264.99 33.17 270.91 37.48 275.5 42.73C278.65 46.35 281.32 50.55 282.36 55.24C283.56 60.61 282.58 66.21 281.69 71.61C277.48 97.15 275.19 123.83 283.02 148.49C275.57 150 267.41 144.71 265.74 137.3C265.07 134.34 265.33 131.26 265.6 128.25C266.61 116.7 267.62 105.15 269.37 93.69C270.73 84.97 272.52 76.26 272.65 67.43C272.75 60.22 271.51 52.52 266.63 47.22C258.71 38.53 244.95 35.78 239.29 47.74Z" />
			<path id="Layer" class="shp11" d="M239.29 46.98C237.06 51.69 235.51 56.93 236.34 62.09C237.05 66.5 239.44 70.38 241.84 74.12C247.26 82.57 253.21 91.25 254.31 101.23C254.7 104.8 254.42 108.53 252.87 111.76C251.31 114.99 248.33 117.66 244.78 118.24C243.81 118.45 242.79 118.34 241.89 117.92C240.77 117.29 240.17 116.1 239.6 114.97C236.87 109.54 223.95 107.99 217.99 109.2C217.16 109.37 224.32 105.42 223.48 105.3C221.04 104.94 220.59 101.63 220.77 99.17L224.2 51.66C224.4 48.97 224.6 46.25 225.46 43.69C228.61 34.48 239.48 30.28 249.21 30.01C252.23 29.88 255.25 30.15 258.2 30.8C264.99 32.41 270.91 36.71 275.5 41.96C278.65 45.58 281.32 49.79 282.36 54.48C283.56 59.85 282.58 65.44 281.69 70.85C277.48 96.38 275.19 123.07 283.02 147.72C275.57 149.23 267.41 143.94 265.74 136.54C265.07 133.58 265.33 130.5 265.6 127.49C266.61 115.94 267.62 104.39 269.37 92.93C270.73 84.21 272.52 75.5 272.65 66.66C272.75 59.46 271.51 51.76 266.63 46.45C258.71 37.74 244.95 35.02 239.29 46.98Z" />
			<path id="Layer" class="shp1" d="M370 192L80 192L80 310L370 310L370 253.06L370 192Z" />
			<path id="Layer" class="shp4" d="M23.97 111.27C21.92 112.33 19.83 113.39 18.24 115.05C16.64 116.71 15.58 119.04 14.74 121.28C12.7 126.79 11.42 132.54 10.16 138.28C5.64 158.74 1.12 179.31 0.14 200.22C-0.11 205.38 -0.12 210.62 1.16 215.63C2.55 221.09 5.45 226.05 8.5 230.8C18.38 246.13 30.28 260.07 43.89 272.23C44.72 272.9 45.45 273.69 46.05 274.59C46.49 275.44 46.84 276.34 47.1 277.27C49.62 284.45 56.65 288.9 63.19 292.8C65.81 294.36 68.52 295.95 71.53 296.46C73.09 296.72 74.68 296.69 76.17 297.28C78.45 298.19 79.95 300.43 82.14 301.55C84.33 302.68 87.98 301.35 87.39 298.97C89.44 300.55 92.74 297.2 91.12 295.19C92.74 296.23 94.98 294.51 95.18 292.6C95.39 290.68 94.31 288.89 93.3 287.27C89.75 281.72 86.07 276.05 80.75 272.16C75.05 268.02 67.92 266.3 62.05 262.41C56.35 258.63 52.14 253.02 48.12 247.48C39.9 236.15 31.97 224.62 24.31 212.9C23.3 211.36 22.27 209.75 21.93 207.96C21.58 206.16 21.93 204.18 22.34 202.36C26.08 184.89 31.39 167.8 38.19 151.29C39.94 146.81 42.04 142.49 44.49 138.36C47.88 132.88 52.27 128.05 55.53 122.49C58.79 116.93 60.9 110.23 59.11 104.03C57.37 98 49.67 91.6 44.07 96.19C40.92 98.76 38.74 102.26 35.3 104.7C31.69 107.16 27.9 109.36 23.97 111.27Z" />
			<path id="Layer" class="shp4" d="M55.7 37.1C53.41 43.05 54.66 49.7 55.94 55.99C56.68 59.58 57.44 63.21 59.18 66.43C60.59 68.94 62.45 71.16 64.68 72.99C70.17 77.56 77.05 80.15 84.19 80.34C85.62 80.45 87.05 80.24 88.39 79.71C90.06 78.94 91.22 77.39 92.3 75.93C95.04 72.16 97.8 68.38 99.69 64.15C103.07 56.52 103.4 47.95 103.68 39.59C103.8 38.36 103.68 37.12 103.3 35.94C102.99 35.24 102.58 34.58 102.09 33.99C97.06 27.41 87.42 16.85 78.29 19.93C69.79 22.75 59.1 28.27 55.7 37.1Z" />
			<path id="Layer" class="shp6" d="M80.11 297.66C78.65 297.08 77.03 297.11 75.47 296.85C72.46 296.34 69.76 294.75 67.13 293.19C60.58 289.29 53.57 284.84 51.04 277.65C50.78 276.73 50.43 275.83 49.99 274.97C49.4 274.08 48.67 273.28 47.83 272.61C34.22 260.45 22.32 246.52 12.44 231.18C9.39 226.43 6.49 221.48 5.1 216.01C3.84 211.01 3.84 205.77 4.08 200.61C5.06 179.69 9.59 159.12 14.1 138.67C15.36 132.93 16.62 127.18 18.68 121.67C19.52 119.42 20.52 117.17 22.18 115.44C23.84 113.7 25.86 112.71 27.91 111.66C31.84 109.74 35.63 107.54 39.24 105.08C42.68 102.64 44.87 99.14 48 96.57C48.69 96 49.49 95.58 50.35 95.31C49.27 94.98 48.14 94.92 47.04 95.14C45.94 95.36 44.91 95.85 44.05 96.57C40.9 99.14 38.72 102.64 35.29 105.08C31.67 107.54 27.88 109.74 23.95 111.66C21.91 112.71 19.82 113.77 18.22 115.44C16.63 117.1 15.57 119.42 14.73 121.67C12.68 127.17 11.41 132.93 10.15 138.67C5.66 159.12 1.11 179.68 0.13 200.61C-0.12 205.78 -0.13 211.01 1.15 216.02C2.55 221.49 5.44 226.44 8.5 231.19C18.37 246.53 30.28 260.46 43.88 272.62C44.72 273.29 45.45 274.08 46.05 274.98C46.48 275.84 46.83 276.73 47.1 277.66C49.62 284.84 56.64 289.3 63.18 293.19C65.81 294.75 68.51 296.34 71.53 296.85C73.08 297.11 74.67 297.08 76.17 297.67C78.44 298.58 79.94 300.82 82.13 301.94C82.74 302.22 83.39 302.35 84.05 302.34C84.72 302.33 85.37 302.18 85.96 301.89C83.83 300.72 82.35 298.56 80.11 297.66Z" />
			<path id="Layer" class="shp5" d="M62.91 33.37C59.08 39.51 58.37 47.3 60.19 54.31C61.56 59.56 64.28 65.01 62.44 70.13C61.05 73.98 57.19 77.82 59.11 81.43C59.54 82.24 60.23 82.9 60.48 83.78C60.91 85.27 59.95 86.75 59.28 88.15C55.79 95.43 59.96 103.79 62 111.6C63.51 117.38 63.82 123.39 64.12 129.36L60.34 119.71C58.79 127.81 55.42 135.45 50.48 142.06C53.26 142.09 56.01 142.51 58.67 143.32C56.7 143.08 54.72 143.59 53.12 144.75C51.51 145.91 50.4 147.62 50 149.56C49.61 151.5 49.95 153.52 50.98 155.21C52 156.91 53.62 158.16 55.52 158.71C51.65 159.57 47.66 156.94 45.81 153.43C43.96 149.93 43.82 145.8 44.04 141.84L40.89 142.1C44.04 134.54 45.37 126.35 44.8 118.17C44.54 114.56 43.35 110.29 39.89 109.23L38.85 118.82L34.62 110.3C34.35 109.56 33.83 108.92 33.16 108.5C32.64 108.34 32.12 108.22 31.58 108.13C29.93 107.62 29.28 105.46 29.8 103.81C30.32 102.16 31.65 100.9 32.91 99.72C37.19 95.72 41.46 91.45 43.78 86.06C45.93 81.06 46.24 75.49 46.47 70.05C46.73 63.68 46.94 57.3 47.1 50.91C47.2 45.87 47.27 40.8 48.36 35.89C50.24 27.57 55.28 19.85 62.69 15.6C70.1 11.35 79.77 10.96 87.06 15.38C91.47 18.03 94.72 22.14 97.9 26.15L107.03 37.68C108.92 40.06 110.84 42.52 111.72 45.43C113.33 50.79 111.09 56.53 108.36 61.43C105.62 66.34 102.34 71.17 101.67 76.73C100.91 83.15 103.77 89.39 106.57 95.23C110.12 102.65 113.72 110.16 119.07 116.41C121.79 119.58 125.08 122.67 125.84 126.78C125.27 127.25 124.58 127.58 123.85 127.75C123.12 127.91 122.36 127.89 121.64 127.71C123.81 136.33 125.55 145.04 126.85 153.86C119.1 148.75 111.59 143.32 104.31 137.55C104.01 138.98 103.35 140.32 102.39 141.43C101.44 142.54 100.22 143.39 98.84 143.9C98.62 141.46 99.47 139.05 99.59 136.6C99.71 134.16 98.77 131.3 96.44 130.56C95.08 130.13 93.47 130.5 92.32 129.66C91.48 129.03 91.15 127.96 90.87 126.94L85.62 107.67C82.43 107.51 79.26 108.28 76.49 109.87C80.44 107.67 83.38 104.01 84.68 99.68L73.75 99.51C76.64 96.78 79.43 93.96 82.13 91.05C86.07 86.82 89.83 82.37 92.69 77.36C100.73 63.3 100.84 45.03 92.97 30.87C91.67 28.52 90.12 26.24 87.94 24.69C80.06 19.22 67.22 26.45 62.91 33.37Z" />
			<path id="Layer" class="shp6" d="M109.55 188.91C109.55 187.23 110.35 185.66 111.18 184.2C112.33 182.19 113.56 180.24 114.87 178.34C115.81 176.8 117.06 175.46 118.53 174.41C120.06 173.46 122.11 173.15 123.67 174.03C124.02 174.31 124.42 174.48 124.86 174.54C125.49 174.54 125.9 173.91 126.46 173.67C127.47 173.2 128.63 173.95 129.33 174.81C130.04 175.67 130.59 176.7 131.61 177.2C131.97 177.37 132.38 177.45 132.75 177.62C134.04 178.19 134.73 179.58 135.31 180.87C135.77 181.72 136.04 182.66 136.09 183.63C136.09 185.32 134.84 186.7 133.65 187.91L130.6 191.05C129.82 191.94 128.92 192.69 127.92 193.3C127.42 193.6 126.86 193.79 126.27 193.84C125.69 193.89 125.1 193.81 124.55 193.61C124.28 193.44 123.97 193.36 123.65 193.38C123.41 193.46 123.21 193.62 123.07 193.83C122.39 194.66 121.76 195.52 121.18 196.41C120.69 197.36 119.97 198.17 119.1 198.77C118.16 199.29 116.76 199.12 116.34 198.14C116.29 197.95 116.19 197.77 116.06 197.63C115.67 197.33 115.18 197.82 114.73 198C113.98 198.33 113.1 197.7 112.84 196.92C112.67 196.12 112.71 195.29 112.98 194.52C112.42 194.06 111.6 194.34 110.88 194.37C109.39 194.45 109.69 193.5 109.73 192.63C109.85 191.36 109.58 190.17 109.55 188.91Z" />
			<path id="Layer" class="shp4" d="M109.17 189.69C109.17 188.01 109.98 186.45 110.81 184.99C111.96 182.98 113.19 181.03 114.5 179.13C115.44 177.59 116.69 176.25 118.16 175.2C119.69 174.24 121.74 173.94 123.3 174.82C123.64 175.09 124.05 175.27 124.48 175.33C125.11 175.33 125.53 174.7 126.09 174.46C127.1 173.99 128.26 174.73 128.96 175.6C129.67 176.46 130.22 177.49 131.24 177.98C131.6 178.16 132.01 178.24 132.38 178.41C133.67 178.97 134.36 180.36 134.94 181.65C135.4 182.51 135.66 183.45 135.72 184.42C135.72 186.11 134.46 187.48 133.28 188.69L130.23 191.84C129.45 192.72 128.55 193.48 127.55 194.09C127.05 194.39 126.48 194.57 125.9 194.63C125.31 194.68 124.73 194.6 124.18 194.4C123.91 194.23 123.59 194.14 123.28 194.16C123.04 194.25 122.84 194.41 122.7 194.62C122.02 195.44 121.39 196.31 120.81 197.2C120.31 198.14 119.6 198.95 118.72 199.56C117.79 200.08 116.39 199.91 115.97 198.93C115.92 198.74 115.82 198.56 115.68 198.41C115.3 198.11 114.81 198.6 114.36 198.79C113.61 199.11 112.73 198.48 112.47 197.71C112.3 196.91 112.34 196.08 112.61 195.3C112.05 194.85 111.23 195.12 110.51 195.16C109.02 195.24 109.32 194.28 109.36 193.42C109.45 192.14 109.19 190.95 109.17 189.69Z" />
			<path id="Layer" class="shp6" d="M214.85 157.94L176.73 187.47L150.29 207.92C134.15 222.88 129.04 201.63 129.04 201.63L132.97 139.84C132.83 124.01 135.43 114.78 138.82 109.45C141.62 105.04 144.97 103.3 147.75 102.7L148.21 102.61C149.95 102.29 151.74 102.37 153.44 102.85C164.77 107.29 164.38 119.92 162.5 128.73C161.84 131.85 160.92 134.91 159.74 137.88C159.77 138.98 159.73 140.09 159.62 141.19C158.84 151.22 155.01 178.02 155.01 178.02L200.66 146.93L214.85 157.94Z" />
			<path id="Layer" class="shp4" d="M213.67 157.94L175.54 187.47L149.1 207.92C132.97 222.88 127.85 201.63 127.85 201.63L131.79 139.84C131.64 124.01 134.24 114.78 137.64 109.45C140.44 105.04 143.78 103.3 146.56 102.7L147.03 102.61C148.77 102.29 150.56 102.37 152.26 102.85C163.59 107.29 163.2 119.92 161.32 128.73C160.66 131.85 159.73 134.91 158.55 137.88C158.59 138.98 158.55 140.09 158.43 141.19C157.66 151.22 153.83 178.02 153.83 178.02L199.48 146.93L213.67 157.94Z" />
			<path id="Layer" class="shp6" d="M202.06 136.89C202.06 136.89 181.59 184.51 184.74 206.94C184.74 206.94 180.02 220.72 217.8 214.42L271.31 202.61L285.87 206.16L289.02 210.09L289.02 221.11C289.02 221.11 293.35 224.26 294.53 221.11C295.71 217.97 294.53 209.7 294.53 209.7L297.29 214.42L298.47 223.86C298.47 223.86 301.62 226.23 302.8 223.86L301.22 210.06C301.22 210.06 307.52 223.05 310.28 221.86C313.04 220.68 306.73 205.72 306.73 205.72C307.96 205.72 309.17 206.05 310.23 206.67C311.3 207.29 312.17 208.18 312.78 209.26C314.04 211.44 315.66 213.66 316.96 212.81C319.32 211.24 316.96 206.91 316.96 206.91L311.45 199.04C303.79 193.16 294.43 189.91 284.77 189.78L214.26 188.81C214.26 188.81 224.1 165.59 224.89 154.18C224.89 154.18 225.28 147.09 233.94 142.37C242.6 137.65 212.29 95.56 202.06 136.89Z" />
			<path id="Layer" class="shp4" d="M231.18 111.7C231.18 111.7 211.5 95.56 201.27 136.88C201.27 136.88 180.81 184.5 183.96 206.93C183.96 206.93 179.23 220.71 217.01 214.41L270.52 202.61L285.09 206.15L288.24 210.09L288.24 221.11C288.24 221.11 292.57 224.25 293.74 221.11C294.92 217.96 293.74 209.69 293.74 209.69L296.5 214.41L297.69 223.86C297.69 223.86 300.83 226.22 302.02 223.86L300.44 210.06C300.44 210.06 306.73 223.05 309.49 221.86C312.25 220.68 305.98 205.76 305.98 205.76C307.21 205.75 308.42 206.08 309.48 206.7C310.54 207.32 311.42 208.22 312.02 209.29C313.28 211.47 314.9 213.7 316.21 212.85C318.57 211.27 316.21 206.94 316.21 206.94L310.7 199.07C303.03 193.19 293.68 189.95 284.02 189.81L213.5 188.84C213.5 188.84 223.34 165.62 224.13 154.21C224.13 154.21 224.53 147.13 233.18 142.4C241.84 137.68 231.18 111.7 231.18 111.7Z" />
			<path id="Layer" class="shp12" d="M103.63 207.19C102.49 206.06 100.94 205.44 99.34 205.45C97.73 205.47 96.2 206.12 95.08 207.27C93.95 208.41 93.33 209.96 93.35 211.56C93.36 213.17 94.01 214.7 95.16 215.82L103.8 224.3L112.27 215.66C113.39 214.51 114.02 212.97 114 211.37C113.99 209.76 113.33 208.23 112.19 207.1C111.04 205.98 109.5 205.36 107.89 205.37C106.29 205.39 104.76 206.04 103.63 207.19Z" />
			<path id="Layer" class="shp13" d="M338.2 276.84C337.06 275.72 335.51 275.1 333.91 275.11C332.3 275.13 330.77 275.78 329.65 276.92C328.52 278.07 327.9 279.61 327.92 281.22C327.93 282.82 328.58 284.36 329.73 285.48L338.35 293.95L346.82 285.31C347.38 284.74 347.82 284.07 348.12 283.33C348.41 282.6 348.56 281.81 348.55 281.01C348.55 280.22 348.38 279.44 348.07 278.7C347.76 277.97 347.31 277.31 346.74 276.75C346.17 276.2 345.5 275.76 344.76 275.46C344.03 275.16 343.24 275.01 342.45 275.02C341.65 275.03 340.87 275.19 340.13 275.5C339.4 275.82 338.74 276.27 338.19 276.83L338.2 276.84Z" />
			<path id="Layer" fill-rule="evenodd" class="shp14" d="M244.48 231.85C245.27 231.85 246.43 233.15 248.53 236.45C250.72 239.94 250.91 241.14 249.28 241.14C248.72 241.14 247.97 241.65 247.55 242.3C246.67 243.65 246.11 247.18 246.81 247.18C247.83 247.18 252.17 251.64 253.34 253.87C255.01 257.17 255.06 262.18 253.48 265.48C249.09 274.4 238.09 276.3 230.72 269.38L228.29 267.06L226.29 268.22C225.17 268.87 222.98 269.66 221.39 269.94C218.64 270.5 218.55 270.59 218.22 272.08C217.85 274.17 218.08 274.49 220.55 274.86C222.79 275.19 223.86 276.02 223.4 277.14C223.21 277.65 222.42 277.83 220.18 277.83L217.2 277.83L216.78 280.02C216.31 282.48 215.24 283.45 214.03 282.48C213.42 281.97 213.32 281.37 213.56 279.6C213.88 277.19 213.65 276.91 210.39 276.21C208.85 275.88 208.34 274.86 209.18 273.84C209.64 273.24 210.29 273.14 212.07 273.33C214.4 273.61 214.4 273.65 214.91 271.19C215.19 270.08 215 269.8 213.7 269.1C211.18 267.76 208.2 264.74 206.89 262.27C205.86 260.37 205.63 259.35 205.63 256.47C205.63 250.9 208.24 246.53 213.04 244.02C215.1 242.95 215.98 242.77 219.39 242.77C222.6 242.77 223.72 242.95 225.36 243.84C232.16 247.41 234.92 254.19 232.44 261.07L231.42 263.95L232.49 265.53C234.78 268.82 239.91 270.31 243.82 268.82C247.41 267.48 250.16 263.48 250.16 259.72C250.16 253.13 243.12 248.2 237.25 250.66C236.31 251.03 235.52 251.31 235.48 251.27C234.82 250.48 233.89 247.97 234.08 247.65C234.22 247.41 235.2 246.95 236.22 246.67C238.55 245.97 238.88 245.51 239.25 242.86C239.53 240.86 239.44 240.59 238.13 239.38L236.69 238.03L237.71 237.1C238.27 236.59 239.95 235.2 241.44 233.99C242.94 232.83 244.29 231.85 244.48 231.85ZM212.72 249.46C210.9 251.08 210.06 253.31 210.06 256.33C210.06 259.58 210.85 261.39 213.23 263.53C217.57 267.43 223.12 266.92 227.27 262.23L228.63 259.85L229.13 256.35C229.27 252.92 228.85 252.24 227.5 250.57C226.75 249.6 225.17 248.34 224 247.78C219.67 245.69 216.22 246.21 212.72 249.46Z" />
		</g>
	</g>
</svg>